<mxfile host="app.diagrams.net" agent="Mozilla/5.0 (Windows NT 10.0; Win64; x64; rv:137.0) Gecko/20100101 Firefox/137.0" version="26.2.12">
  <diagram name="Page-1" id="0LhGj8jQRVohELzix33f">
    <mxGraphModel dx="2456" dy="2040" grid="1" gridSize="10" guides="1" tooltips="1" connect="1" arrows="1" fold="1" page="1" pageScale="1" pageWidth="850" pageHeight="1100" math="0" shadow="0">
      <root>
        <mxCell id="0" />
        <mxCell id="1" parent="0" />
        <UserObject label="" plantUmlData="{&#xa;  &quot;data&quot;: &quot;@startuml\n&#39; Class Diagram\n\nclass Recipe {\n  - title: String\n  - ingredients: List&lt;String&gt;\n  - instructions: String\n  - rating: Double\n  + create(): void\n  + export(): File\n  + accessInfo(): String\n}\n\nclass RecipeCollection {\n  - name: String\n  - description: String\n  + addRecipe(r: Recipe): void\n  + removeRecipe(r: Recipe): void\n}\n\nclass Feedback {\n  - rating: Double\n  - comment: String\n  - date: Date\n  + submit(): void\n}\n\nclass Report {\n  - generatedOn: Date\n  - content: String\n  + generate(): void\n  + view(): String\n}\n\nclass User {\n  - username: String\n  - email: String\n}\n\nclass RecipeCreator {\n  + createRecipe(): Recipe\n  + manageCollections(): void\n  + exportRecipe(): File\n  + rateRecipe(): void\n  + provideFeedback(): void\n}\n\nclass RecipeOwner {\n  + exportRecipe(): File\n}\n\nclass SystemOwner {\n  + generateReports(): Report\n}\n\nclass EndUser {\n  + viewRecipe(): String\n  + searchRecipes(): List&lt;Recipe&gt;\n  + rateRecipe(): void\n}\n\nclass SystemAdministrator {\n  + maintainSystem(): void\n}\n\nclass AIRecipeAssistant {\n  + assistCreation(): Recipe\n}\n\nclass DatabaseManager {\n  + manageDatabase(): void\n}\n\nclass SearchEngine {\n  + performAdvancedSearch(): List&lt;Recipe&gt;\n}\n\nclass ReportGenerator {\n  + generateReport(): Report\n}\n\nclass QualityControlTeam {\n  + reviewFeedback(): void\n}\n\nclass Recipient {\n  + receiveRecipe(): void\n}\n\nclass RecipeContributor {\n  + contribute(): void\n}\n\n&#39; Inheritance\nUser &lt;|-- RecipeCreator\nUser &lt;|-- RecipeOwner\nUser &lt;|-- SystemOwner\nUser &lt;|-- EndUser\nUser &lt;|-- SystemAdministrator\nUser &lt;|-- DatabaseManager\nUser &lt;|-- ReportGenerator\nUser &lt;|-- QualityControlTeam\nUser &lt;|-- AIRecipeAssistant\nUser &lt;|-- RecipeContributor\nUser &lt;|-- Recipient\n\n&#39; Associations\nRecipe \&quot;1\&quot; -- \&quot;*\&quot; Feedback\nRecipe \&quot;1\&quot; -- \&quot;*\&quot; Report\nRecipeCreator \&quot;1\&quot; -- \&quot;*\&quot; Recipe\nRecipeCreator \&quot;1\&quot; -- \&quot;*\&quot; RecipeCollection\nRecipeCollection \&quot;*\&quot; -- \&quot;*\&quot; Recipe\nSearchEngine \&quot;1\&quot; ..&gt; \&quot;*\&quot; Recipe : search\n@enduml\n&quot;,&#xa;  &quot;format&quot;: &quot;svg&quot;&#xa;}" id="xc44-Wcd5otNIQvD0eOE-1">
          <mxCell style="shape=image;noLabel=1;verticalAlign=top;aspect=fixed;imageAspect=0;image=data:image/svg+xml,PHN2ZyB4bWxucz0iaHR0cDovL3d3dy53My5vcmcvMjAwMC9zdmciIHhtbG5zOnhsaW5rPSJodHRwOi8vd3d3LnczLm9yZy8xOTk5L3hsaW5rIiBjb250ZW50U3R5bGVUeXBlPSJ0ZXh0L2NzcyIgZGF0YS1kaWFncmFtLXR5cGU9IkNMQVNTIiBoZWlnaHQ9Ijg0MXB4IiBwcmVzZXJ2ZUFzcGVjdFJhdGlvPSJub25lIiBzdHlsZT0id2lkdGg6MjQxNnB4O2hlaWdodDo4NDFweDtiYWNrZ3JvdW5kOiNGRkZGRkY7IiB2ZXJzaW9uPSIxLjEiIHZpZXdCb3g9IjAgMCAyNDE2IDg0MSIgd2lkdGg9IjI0MTZweCIgem9vbUFuZFBhbj0ibWFnbmlmeSI+PGRlZnMvPjxnPjwhLS1jbGFzcyBSZWNpcGUtLT48ZyBjbGFzcz0iZW50aXR5IiBkYXRhLWVudGl0eT0iUmVjaXBlIiBkYXRhLXNvdXJjZS1saW5lPSIzIiBkYXRhLXVpZD0iZW50MDAwMiIgaWQ9ImVudGl0eV9SZWNpcGUiPjxyZWN0IGZpbGw9IiNGMUYxRjEiIGhlaWdodD0iMTUyLjg5MDYiIHJ4PSIyLjUiIHJ5PSIyLjUiIHN0eWxlPSJzdHJva2U6IzE4MTgxODtzdHJva2Utd2lkdGg6MC41OyIgd2lkdGg9IjIwMSIgeD0iMTU1IiB5PSI1MTMiLz48ZWxsaXBzZSBjeD0iMjMwLjI1IiBjeT0iNTI5IiBmaWxsPSIjQUREMUIyIiByeD0iMTEiIHJ5PSIxMSIgc3R5bGU9InN0cm9rZTojMTgxODE4O3N0cm9rZS13aWR0aDoxOyIvPjxwYXRoIGQ9Ik0yMjcuODc1LDUzMy4yNSBMMjI3Ljg3NSw1MzUgTDIzMi44MTI1LDUzNSBMMjMyLjgxMjUsNTMzLjI1IEwyMjcuODc1LDUzMy4yNSBaIE0yMjguNTYyNSw1MzMuOTM3NSBRMjI4LjU2MjUsNTMzLjkzNzUgMjI4LjU2MjUsNTI0Ljc1IEwyMjYuODEyNSw1MjQuNzUgUTIyNi44MTI1LDUyNC43NSAyMjYuODEyNSw1MzMuOTM3NSBMMjI4LjU2MjUsNTMzLjkzNzUgWiBNMjMyLjEyNSw1MzMuOTM3NSBMMjMzLjg3NSw1MzMuOTM3NSBRMjMzLjg3NSw1MzMuOTM3NSAyMzMuODc1LDUzMS4xMjUgTDIzMi4xMjUsNTMxLjEyNSBRMjMyLjEyNSw1MzEuMTI1IDIzMi4xMjUsNTMzLjkzNzUgWiBNMjMyLjEyNSw1MjQuNzUgUTIzMi4xMjUsNTI0Ljc1IDIzMi4xMjUsNTI3LjU2MjUgTDIzMy44NzUsNTI3LjU2MjUgUTIzMy44NzUsNTI3LjU2MjUgMjMzLjg3NSw1MjQuNzUgTDIzMi4xMjUsNTI0Ljc1IFogTTIyNy44NzUsNTI1LjQzNzUgTDIzMi44MTI1LDUyNS40Mzc1IEwyMzIuODEyNSw1MjMuNjg3NSBMMjI3Ljg3NSw1MjMuNjg3NSBMMjI3Ljg3NSw1MjUuNDM3NSBaICIgZmlsbD0iIzAwMDAwMCIvPjx0ZXh0IGZpbGw9IiMwMDAwMDAiIGZvbnQtZmFtaWx5PSJzYW5zLXNlcmlmIiBmb250LXNpemU9IjE0IiBsZW5ndGhBZGp1c3Q9InNwYWNpbmciIHRleHRMZW5ndGg9IjQyIiB4PSIyNTAuNzUiIHk9IjUzNC43NDIyIj5SZWNpcGU8L3RleHQ+PGxpbmUgc3R5bGU9InN0cm9rZTojMTgxODE4O3N0cm9rZS13aWR0aDowLjU7IiB4MT0iMTU2IiB4Mj0iMzU1IiB5MT0iNTQ1IiB5Mj0iNTQ1Ii8+PHJlY3QgZmlsbD0ibm9uZSIgaGVpZ2h0PSI2IiBzdHlsZT0ic3Ryb2tlOiNDODI5MzA7c3Ryb2tlLXdpZHRoOjE7IiB3aWR0aD0iNiIgeD0iMTYzIiB5PSI1NTQuOTkyMiIvPjx0ZXh0IGZpbGw9IiMwMDAwMDAiIGZvbnQtZmFtaWx5PSJzYW5zLXNlcmlmIiBmb250LXNpemU9IjE0IiBsZW5ndGhBZGp1c3Q9InNwYWNpbmciIHRleHRMZW5ndGg9IjkxIiB4PSIxNzUiIHk9IjU2Mi4yMzQ0Ij50aXRsZTogU3RyaW5nPC90ZXh0PjxyZWN0IGZpbGw9Im5vbmUiIGhlaWdodD0iNiIgc3R5bGU9InN0cm9rZTojQzgyOTMwO3N0cm9rZS13aWR0aDoxOyIgd2lkdGg9IjYiIHg9IjE2MyIgeT0iNTY5Ljk3NjYiLz48dGV4dCBmaWxsPSIjMDAwMDAwIiBmb250LWZhbWlseT0ic2Fucy1zZXJpZiIgZm9udC1zaXplPSIxNCIgbGVuZ3RoQWRqdXN0PSJzcGFjaW5nIiB0ZXh0TGVuZ3RoPSIxNzUiIHg9IjE3NSIgeT0iNTc3LjIxODgiPmluZ3JlZGllbnRzOiBMaXN0Jmx0O1N0cmluZyZndDs8L3RleHQ+PHJlY3QgZmlsbD0ibm9uZSIgaGVpZ2h0PSI2IiBzdHlsZT0ic3Ryb2tlOiNDODI5MzA7c3Ryb2tlLXdpZHRoOjE7IiB3aWR0aD0iNiIgeD0iMTYzIiB5PSI1ODQuOTYwOSIvPjx0ZXh0IGZpbGw9IiMwMDAwMDAiIGZvbnQtZmFtaWx5PSJzYW5zLXNlcmlmIiBmb250LXNpemU9IjE0IiBsZW5ndGhBZGp1c3Q9InNwYWNpbmciIHRleHRMZW5ndGg9IjE0MCIgeD0iMTc1IiB5PSI1OTIuMjAzMSI+aW5zdHJ1Y3Rpb25zOiBTdHJpbmc8L3RleHQ+PHJlY3QgZmlsbD0ibm9uZSIgaGVpZ2h0PSI2IiBzdHlsZT0ic3Ryb2tlOiNDODI5MzA7c3Ryb2tlLXdpZHRoOjE7IiB3aWR0aD0iNiIgeD0iMTYzIiB5PSI1OTkuOTQ1MyIvPjx0ZXh0IGZpbGw9IiMwMDAwMDAiIGZvbnQtZmFtaWx5PSJzYW5zLXNlcmlmIiBmb250LXNpemU9IjE0IiBsZW5ndGhBZGp1c3Q9InNwYWNpbmciIHRleHRMZW5ndGg9Ijk4IiB4PSIxNzUiIHk9IjYwNy4xODc1Ij5yYXRpbmc6IERvdWJsZTwvdGV4dD48bGluZSBzdHlsZT0ic3Ryb2tlOiMxODE4MTg7c3Ryb2tlLXdpZHRoOjAuNTsiIHgxPSIxNTYiIHgyPSIzNTUiIHkxPSI2MTIuOTM3NSIgeTI9IjYxMi45Mzc1Ii8+PGVsbGlwc2UgY3g9IjE2NiIgY3k9IjYyNS45Mjk3IiBmaWxsPSIjODRCRTg0IiByeD0iMyIgcnk9IjMiIHN0eWxlPSJzdHJva2U6IzAzODA0ODtzdHJva2Utd2lkdGg6MTsiLz48dGV4dCBmaWxsPSIjMDAwMDAwIiBmb250LWZhbWlseT0ic2Fucy1zZXJpZiIgZm9udC1zaXplPSIxNCIgbGVuZ3RoQWRqdXN0PSJzcGFjaW5nIiB0ZXh0TGVuZ3RoPSI5OCIgeD0iMTc1IiB5PSI2MzAuMTcxOSI+Y3JlYXRlKCk6IHZvaWQ8L3RleHQ+PGVsbGlwc2UgY3g9IjE2NiIgY3k9IjY0MC45MTQxIiBmaWxsPSIjODRCRTg0IiByeD0iMyIgcnk9IjMiIHN0eWxlPSJzdHJva2U6IzAzODA0ODtzdHJva2Utd2lkdGg6MTsiLz48dGV4dCBmaWxsPSIjMDAwMDAwIiBmb250LWZhbWlseT0ic2Fucy1zZXJpZiIgZm9udC1zaXplPSIxNCIgbGVuZ3RoQWRqdXN0PSJzcGFjaW5nIiB0ZXh0TGVuZ3RoPSI5OCIgeD0iMTc1IiB5PSI2NDUuMTU2MyI+ZXhwb3J0KCk6IEZpbGU8L3RleHQ+PGVsbGlwc2UgY3g9IjE2NiIgY3k9IjY1NS44OTg0IiBmaWxsPSIjODRCRTg0IiByeD0iMyIgcnk9IjMiIHN0eWxlPSJzdHJva2U6IzAzODA0ODtzdHJva2Utd2lkdGg6MTsiLz48dGV4dCBmaWxsPSIjMDAwMDAwIiBmb250LWZhbWlseT0ic2Fucy1zZXJpZiIgZm9udC1zaXplPSIxNCIgbGVuZ3RoQWRqdXN0PSJzcGFjaW5nIiB0ZXh0TGVuZ3RoPSIxNDAiIHg9IjE3NSIgeT0iNjYwLjE0MDYiPmFjY2Vzc0luZm8oKTogU3RyaW5nPC90ZXh0PjwvZz48IS0tY2xhc3MgUmVjaXBlQ29sbGVjdGlvbi0tPjxnIGNsYXNzPSJlbnRpdHkiIGRhdGEtZW50aXR5PSJSZWNpcGVDb2xsZWN0aW9uIiBkYXRhLXNvdXJjZS1saW5lPSIxMyIgZGF0YS11aWQ9ImVudDAwMDMiIGlkPSJlbnRpdHlfUmVjaXBlQ29sbGVjdGlvbiI+PHJlY3QgZmlsbD0iI0YxRjFGMSIgaGVpZ2h0PSIxMDcuOTM3NSIgcng9IjIuNSIgcnk9IjIuNSIgc3R5bGU9InN0cm9rZTojMTgxODE4O3N0cm9rZS13aWR0aDowLjU7IiB3aWR0aD0iMjI5IiB4PSIxNDEiIHk9IjMzMCIvPjxlbGxpcHNlIGN4PSIxOTUuMjUiIGN5PSIzNDYiIGZpbGw9IiNBREQxQjIiIHJ4PSIxMSIgcnk9IjExIiBzdHlsZT0ic3Ryb2tlOiMxODE4MTg7c3Ryb2tlLXdpZHRoOjE7Ii8+PHBhdGggZD0iTTE5Mi44NzUsMzUwLjI1IEwxOTIuODc1LDM1MiBMMTk3LjgxMjUsMzUyIEwxOTcuODEyNSwzNTAuMjUgTDE5Mi44NzUsMzUwLjI1IFogTTE5My41NjI1LDM1MC45Mzc1IFExOTMuNTYyNSwzNTAuOTM3NSAxOTMuNTYyNSwzNDEuNzUgTDE5MS44MTI1LDM0MS43NSBRMTkxLjgxMjUsMzQxLjc1IDE5MS44MTI1LDM1MC45Mzc1IEwxOTMuNTYyNSwzNTAuOTM3NSBaIE0xOTcuMTI1LDM1MC45Mzc1IEwxOTguODc1LDM1MC45Mzc1IFExOTguODc1LDM1MC45Mzc1IDE5OC44NzUsMzQ4LjEyNSBMMTk3LjEyNSwzNDguMTI1IFExOTcuMTI1LDM0OC4xMjUgMTk3LjEyNSwzNTAuOTM3NSBaIE0xOTcuMTI1LDM0MS43NSBRMTk3LjEyNSwzNDEuNzUgMTk3LjEyNSwzNDQuNTYyNSBMMTk4Ljg3NSwzNDQuNTYyNSBRMTk4Ljg3NSwzNDQuNTYyNSAxOTguODc1LDM0MS43NSBMMTk3LjEyNSwzNDEuNzUgWiBNMTkyLjg3NSwzNDIuNDM3NSBMMTk3LjgxMjUsMzQyLjQzNzUgTDE5Ny44MTI1LDM0MC42ODc1IEwxOTIuODc1LDM0MC42ODc1IEwxOTIuODc1LDM0Mi40Mzc1IFogIiBmaWxsPSIjMDAwMDAwIi8+PHRleHQgZmlsbD0iIzAwMDAwMCIgZm9udC1mYW1pbHk9InNhbnMtc2VyaWYiIGZvbnQtc2l6ZT0iMTQiIGxlbmd0aEFkanVzdD0ic3BhY2luZyIgdGV4dExlbmd0aD0iMTEyIiB4PSIyMTUuNzUiIHk9IjM1MS43NDIyIj5SZWNpcGVDb2xsZWN0aW9uPC90ZXh0PjxsaW5lIHN0eWxlPSJzdHJva2U6IzE4MTgxODtzdHJva2Utd2lkdGg6MC41OyIgeDE9IjE0MiIgeDI9IjM2OSIgeTE9IjM2MiIgeTI9IjM2MiIvPjxyZWN0IGZpbGw9Im5vbmUiIGhlaWdodD0iNiIgc3R5bGU9InN0cm9rZTojQzgyOTMwO3N0cm9rZS13aWR0aDoxOyIgd2lkdGg9IjYiIHg9IjE0OSIgeT0iMzcxLjk5MjIiLz48dGV4dCBmaWxsPSIjMDAwMDAwIiBmb250LWZhbWlseT0ic2Fucy1zZXJpZiIgZm9udC1zaXplPSIxNCIgbGVuZ3RoQWRqdXN0PSJzcGFjaW5nIiB0ZXh0TGVuZ3RoPSI4NCIgeD0iMTYxIiB5PSIzNzkuMjM0NCI+bmFtZTogU3RyaW5nPC90ZXh0PjxyZWN0IGZpbGw9Im5vbmUiIGhlaWdodD0iNiIgc3R5bGU9InN0cm9rZTojQzgyOTMwO3N0cm9rZS13aWR0aDoxOyIgd2lkdGg9IjYiIHg9IjE0OSIgeT0iMzg2Ljk3NjYiLz48dGV4dCBmaWxsPSIjMDAwMDAwIiBmb250LWZhbWlseT0ic2Fucy1zZXJpZiIgZm9udC1zaXplPSIxNCIgbGVuZ3RoQWRqdXN0PSJzcGFjaW5nIiB0ZXh0TGVuZ3RoPSIxMzMiIHg9IjE2MSIgeT0iMzk0LjIxODgiPmRlc2NyaXB0aW9uOiBTdHJpbmc8L3RleHQ+PGxpbmUgc3R5bGU9InN0cm9rZTojMTgxODE4O3N0cm9rZS13aWR0aDowLjU7IiB4MT0iMTQyIiB4Mj0iMzY5IiB5MT0iMzk5Ljk2ODgiIHkyPSIzOTkuOTY4OCIvPjxlbGxpcHNlIGN4PSIxNTIiIGN5PSI0MTIuOTYwOSIgZmlsbD0iIzg0QkU4NCIgcng9IjMiIHJ5PSIzIiBzdHlsZT0ic3Ryb2tlOiMwMzgwNDg7c3Ryb2tlLXdpZHRoOjE7Ii8+PHRleHQgZmlsbD0iIzAwMDAwMCIgZm9udC1mYW1pbHk9InNhbnMtc2VyaWYiIGZvbnQtc2l6ZT0iMTQiIGxlbmd0aEFkanVzdD0ic3BhY2luZyIgdGV4dExlbmd0aD0iMTgyIiB4PSIxNjEiIHk9IjQxNy4yMDMxIj5hZGRSZWNpcGUocjogUmVjaXBlKTogdm9pZDwvdGV4dD48ZWxsaXBzZSBjeD0iMTUyIiBjeT0iNDI3Ljk0NTMiIGZpbGw9IiM4NEJFODQiIHJ4PSIzIiByeT0iMyIgc3R5bGU9InN0cm9rZTojMDM4MDQ4O3N0cm9rZS13aWR0aDoxOyIvPjx0ZXh0IGZpbGw9IiMwMDAwMDAiIGZvbnQtZmFtaWx5PSJzYW5zLXNlcmlmIiBmb250LXNpemU9IjE0IiBsZW5ndGhBZGp1c3Q9InNwYWNpbmciIHRleHRMZW5ndGg9IjIwMyIgeD0iMTYxIiB5PSI0MzIuMTg3NSI+cmVtb3ZlUmVjaXBlKHI6IFJlY2lwZSk6IHZvaWQ8L3RleHQ+PC9nPjwhLS1jbGFzcyBGZWVkYmFjay0tPjxnIGNsYXNzPSJlbnRpdHkiIGRhdGEtZW50aXR5PSJGZWVkYmFjayIgZGF0YS1zb3VyY2UtbGluZT0iMjAiIGRhdGEtdWlkPSJlbnQwMDA0IiBpZD0iZW50aXR5X0ZlZWRiYWNrIj48cmVjdCBmaWxsPSIjRjFGMUYxIiBoZWlnaHQ9IjEwNy45Mzc1IiByeD0iMi41IiByeT0iMi41IiBzdHlsZT0ic3Ryb2tlOiMxODE4MTg7c3Ryb2tlLXdpZHRoOjAuNTsiIHdpZHRoPSIxMzEiIHg9IjEwNCIgeT0iNzI3Ii8+PGVsbGlwc2UgY3g9IjEzOC4zNSIgY3k9Ijc0MyIgZmlsbD0iI0FERDFCMiIgcng9IjExIiByeT0iMTEiIHN0eWxlPSJzdHJva2U6IzE4MTgxODtzdHJva2Utd2lkdGg6MTsiLz48cGF0aCBkPSJNMTM1Ljk3NSw3NDcuMjUgTDEzNS45NzUsNzQ5IEwxNDAuOTEyNSw3NDkgTDE0MC45MTI1LDc0Ny4yNSBMMTM1Ljk3NSw3NDcuMjUgWiBNMTM2LjY2MjUsNzQ3LjkzNzUgUTEzNi42NjI1LDc0Ny45Mzc1IDEzNi42NjI1LDczOC43NSBMMTM0LjkxMjUsNzM4Ljc1IFExMzQuOTEyNSw3MzguNzUgMTM0LjkxMjUsNzQ3LjkzNzUgTDEzNi42NjI1LDc0Ny45Mzc1IFogTTE0MC4yMjUsNzQ3LjkzNzUgTDE0MS45NzUsNzQ3LjkzNzUgUTE0MS45NzUsNzQ3LjkzNzUgMTQxLjk3NSw3NDUuMTI1IEwxNDAuMjI1LDc0NS4xMjUgUTE0MC4yMjUsNzQ1LjEyNSAxNDAuMjI1LDc0Ny45Mzc1IFogTTE0MC4yMjUsNzM4Ljc1IFExNDAuMjI1LDczOC43NSAxNDAuMjI1LDc0MS41NjI1IEwxNDEuOTc1LDc0MS41NjI1IFExNDEuOTc1LDc0MS41NjI1IDE0MS45NzUsNzM4Ljc1IEwxNDAuMjI1LDczOC43NSBaIE0xMzUuOTc1LDczOS40Mzc1IEwxNDAuOTEyNSw3MzkuNDM3NSBMMTQwLjkxMjUsNzM3LjY4NzUgTDEzNS45NzUsNzM3LjY4NzUgTDEzNS45NzUsNzM5LjQzNzUgWiAiIGZpbGw9IiMwMDAwMDAiLz48dGV4dCBmaWxsPSIjMDAwMDAwIiBmb250LWZhbWlseT0ic2Fucy1zZXJpZiIgZm9udC1zaXplPSIxNCIgbGVuZ3RoQWRqdXN0PSJzcGFjaW5nIiB0ZXh0TGVuZ3RoPSI1NiIgeD0iMTU2LjY1IiB5PSI3NDguNzQyMiI+RmVlZGJhY2s8L3RleHQ+PGxpbmUgc3R5bGU9InN0cm9rZTojMTgxODE4O3N0cm9rZS13aWR0aDowLjU7IiB4MT0iMTA1IiB4Mj0iMjM0IiB5MT0iNzU5IiB5Mj0iNzU5Ii8+PHJlY3QgZmlsbD0ibm9uZSIgaGVpZ2h0PSI2IiBzdHlsZT0ic3Ryb2tlOiNDODI5MzA7c3Ryb2tlLXdpZHRoOjE7IiB3aWR0aD0iNiIgeD0iMTEyIiB5PSI3NjguOTkyMiIvPjx0ZXh0IGZpbGw9IiMwMDAwMDAiIGZvbnQtZmFtaWx5PSJzYW5zLXNlcmlmIiBmb250LXNpemU9IjE0IiBsZW5ndGhBZGp1c3Q9InNwYWNpbmciIHRleHRMZW5ndGg9Ijk4IiB4PSIxMjQiIHk9Ijc3Ni4yMzQ0Ij5yYXRpbmc6IERvdWJsZTwvdGV4dD48cmVjdCBmaWxsPSJub25lIiBoZWlnaHQ9IjYiIHN0eWxlPSJzdHJva2U6I0M4MjkzMDtzdHJva2Utd2lkdGg6MTsiIHdpZHRoPSI2IiB4PSIxMTIiIHk9Ijc4My45NzY2Ii8+PHRleHQgZmlsbD0iIzAwMDAwMCIgZm9udC1mYW1pbHk9InNhbnMtc2VyaWYiIGZvbnQtc2l6ZT0iMTQiIGxlbmd0aEFkanVzdD0ic3BhY2luZyIgdGV4dExlbmd0aD0iMTA1IiB4PSIxMjQiIHk9Ijc5MS4yMTg4Ij5jb21tZW50OiBTdHJpbmc8L3RleHQ+PHJlY3QgZmlsbD0ibm9uZSIgaGVpZ2h0PSI2IiBzdHlsZT0ic3Ryb2tlOiNDODI5MzA7c3Ryb2tlLXdpZHRoOjE7IiB3aWR0aD0iNiIgeD0iMTEyIiB5PSI3OTguOTYwOSIvPjx0ZXh0IGZpbGw9IiMwMDAwMDAiIGZvbnQtZmFtaWx5PSJzYW5zLXNlcmlmIiBmb250LXNpemU9IjE0IiBsZW5ndGhBZGp1c3Q9InNwYWNpbmciIHRleHRMZW5ndGg9IjcwIiB4PSIxMjQiIHk9IjgwNi4yMDMxIj5kYXRlOiBEYXRlPC90ZXh0PjxsaW5lIHN0eWxlPSJzdHJva2U6IzE4MTgxODtzdHJva2Utd2lkdGg6MC41OyIgeDE9IjEwNSIgeDI9IjIzNCIgeTE9IjgxMS45NTMxIiB5Mj0iODExLjk1MzEiLz48ZWxsaXBzZSBjeD0iMTE1IiBjeT0iODI0Ljk0NTMiIGZpbGw9IiM4NEJFODQiIHJ4PSIzIiByeT0iMyIgc3R5bGU9InN0cm9rZTojMDM4MDQ4O3N0cm9rZS13aWR0aDoxOyIvPjx0ZXh0IGZpbGw9IiMwMDAwMDAiIGZvbnQtZmFtaWx5PSJzYW5zLXNlcmlmIiBmb250LXNpemU9IjE0IiBsZW5ndGhBZGp1c3Q9InNwYWNpbmciIHRleHRMZW5ndGg9Ijk4IiB4PSIxMjQiIHk9IjgyOS4xODc1Ij5zdWJtaXQoKTogdm9pZDwvdGV4dD48L2c+PCEtLWNsYXNzIFJlcG9ydC0tPjxnIGNsYXNzPSJlbnRpdHkiIGRhdGEtZW50aXR5PSJSZXBvcnQiIGRhdGEtc291cmNlLWxpbmU9IjI3IiBkYXRhLXVpZD0iZW50MDAwNSIgaWQ9ImVudGl0eV9SZXBvcnQiPjxyZWN0IGZpbGw9IiNGMUYxRjEiIGhlaWdodD0iMTA3LjkzNzUiIHJ4PSIyLjUiIHJ5PSIyLjUiIHN0eWxlPSJzdHJva2U6IzE4MTgxODtzdHJva2Utd2lkdGg6MC41OyIgd2lkdGg9IjE0NSIgeD0iMjcwIiB5PSI3MjciLz48ZWxsaXBzZSBjeD0iMzE3LjI1IiBjeT0iNzQzIiBmaWxsPSIjQUREMUIyIiByeD0iMTEiIHJ5PSIxMSIgc3R5bGU9InN0cm9rZTojMTgxODE4O3N0cm9rZS13aWR0aDoxOyIvPjxwYXRoIGQ9Ik0zMTQuODc1LDc0Ny4yNSBMMzE0Ljg3NSw3NDkgTDMxOS44MTI1LDc0OSBMMzE5LjgxMjUsNzQ3LjI1IEwzMTQuODc1LDc0Ny4yNSBaIE0zMTUuNTYyNSw3NDcuOTM3NSBRMzE1LjU2MjUsNzQ3LjkzNzUgMzE1LjU2MjUsNzM4Ljc1IEwzMTMuODEyNSw3MzguNzUgUTMxMy44MTI1LDczOC43NSAzMTMuODEyNSw3NDcuOTM3NSBMMzE1LjU2MjUsNzQ3LjkzNzUgWiBNMzE5LjEyNSw3NDcuOTM3NSBMMzIwLjg3NSw3NDcuOTM3NSBRMzIwLjg3NSw3NDcuOTM3NSAzMjAuODc1LDc0NS4xMjUgTDMxOS4xMjUsNzQ1LjEyNSBRMzE5LjEyNSw3NDUuMTI1IDMxOS4xMjUsNzQ3LjkzNzUgWiBNMzE5LjEyNSw3MzguNzUgUTMxOS4xMjUsNzM4Ljc1IDMxOS4xMjUsNzQxLjU2MjUgTDMyMC44NzUsNzQxLjU2MjUgUTMyMC44NzUsNzQxLjU2MjUgMzIwLjg3NSw3MzguNzUgTDMxOS4xMjUsNzM4Ljc1IFogTTMxNC44NzUsNzM5LjQzNzUgTDMxOS44MTI1LDczOS40Mzc1IEwzMTkuODEyNSw3MzcuNjg3NSBMMzE0Ljg3NSw3MzcuNjg3NSBMMzE0Ljg3NSw3MzkuNDM3NSBaICIgZmlsbD0iIzAwMDAwMCIvPjx0ZXh0IGZpbGw9IiMwMDAwMDAiIGZvbnQtZmFtaWx5PSJzYW5zLXNlcmlmIiBmb250LXNpemU9IjE0IiBsZW5ndGhBZGp1c3Q9InNwYWNpbmciIHRleHRMZW5ndGg9IjQyIiB4PSIzMzcuNzUiIHk9Ijc0OC43NDIyIj5SZXBvcnQ8L3RleHQ+PGxpbmUgc3R5bGU9InN0cm9rZTojMTgxODE4O3N0cm9rZS13aWR0aDowLjU7IiB4MT0iMjcxIiB4Mj0iNDE0IiB5MT0iNzU5IiB5Mj0iNzU5Ii8+PHJlY3QgZmlsbD0ibm9uZSIgaGVpZ2h0PSI2IiBzdHlsZT0ic3Ryb2tlOiNDODI5MzA7c3Ryb2tlLXdpZHRoOjE7IiB3aWR0aD0iNiIgeD0iMjc4IiB5PSI3NjguOTkyMiIvPjx0ZXh0IGZpbGw9IiMwMDAwMDAiIGZvbnQtZmFtaWx5PSJzYW5zLXNlcmlmIiBmb250LXNpemU9IjE0IiBsZW5ndGhBZGp1c3Q9InNwYWNpbmciIHRleHRMZW5ndGg9IjExOSIgeD0iMjkwIiB5PSI3NzYuMjM0NCI+Z2VuZXJhdGVkT246IERhdGU8L3RleHQ+PHJlY3QgZmlsbD0ibm9uZSIgaGVpZ2h0PSI2IiBzdHlsZT0ic3Ryb2tlOiNDODI5MzA7c3Ryb2tlLXdpZHRoOjE7IiB3aWR0aD0iNiIgeD0iMjc4IiB5PSI3ODMuOTc2NiIvPjx0ZXh0IGZpbGw9IiMwMDAwMDAiIGZvbnQtZmFtaWx5PSJzYW5zLXNlcmlmIiBmb250LXNpemU9IjE0IiBsZW5ndGhBZGp1c3Q9InNwYWNpbmciIHRleHRMZW5ndGg9IjEwNSIgeD0iMjkwIiB5PSI3OTEuMjE4OCI+Y29udGVudDogU3RyaW5nPC90ZXh0PjxsaW5lIHN0eWxlPSJzdHJva2U6IzE4MTgxODtzdHJva2Utd2lkdGg6MC41OyIgeDE9IjI3MSIgeDI9IjQxNCIgeTE9Ijc5Ni45Njg4IiB5Mj0iNzk2Ljk2ODgiLz48ZWxsaXBzZSBjeD0iMjgxIiBjeT0iODA5Ljk2MDkiIGZpbGw9IiM4NEJFODQiIHJ4PSIzIiByeT0iMyIgc3R5bGU9InN0cm9rZTojMDM4MDQ4O3N0cm9rZS13aWR0aDoxOyIvPjx0ZXh0IGZpbGw9IiMwMDAwMDAiIGZvbnQtZmFtaWx5PSJzYW5zLXNlcmlmIiBmb250LXNpemU9IjE0IiBsZW5ndGhBZGp1c3Q9InNwYWNpbmciIHRleHRMZW5ndGg9IjExMiIgeD0iMjkwIiB5PSI4MTQuMjAzMSI+Z2VuZXJhdGUoKTogdm9pZDwvdGV4dD48ZWxsaXBzZSBjeD0iMjgxIiBjeT0iODI0Ljk0NTMiIGZpbGw9IiM4NEJFODQiIHJ4PSIzIiByeT0iMyIgc3R5bGU9InN0cm9rZTojMDM4MDQ4O3N0cm9rZS13aWR0aDoxOyIvPjx0ZXh0IGZpbGw9IiMwMDAwMDAiIGZvbnQtZmFtaWx5PSJzYW5zLXNlcmlmIiBmb250LXNpemU9IjE0IiBsZW5ndGhBZGp1c3Q9InNwYWNpbmciIHRleHRMZW5ndGg9Ijk4IiB4PSIyOTAiIHk9IjgyOS4xODc1Ij52aWV3KCk6IFN0cmluZzwvdGV4dD48L2c+PCEtLWNsYXNzIFVzZXItLT48ZyBjbGFzcz0iZW50aXR5IiBkYXRhLWVudGl0eT0iVXNlciIgZGF0YS1zb3VyY2UtbGluZT0iMzQiIGRhdGEtdWlkPSJlbnQwMDA2IiBpZD0iZW50aXR5X1VzZXIiPjxyZWN0IGZpbGw9IiNGMUYxRjEiIGhlaWdodD0iNzcuOTY4OCIgcng9IjIuNSIgcnk9IjIuNSIgc3R5bGU9InN0cm9rZTojMTgxODE4O3N0cm9rZS13aWR0aDowLjU7IiB3aWR0aD0iMTM4IiB4PSIxMTg4LjUiIHk9IjciLz48ZWxsaXBzZSBjeD0iMTIzOS4yNSIgY3k9IjIzIiBmaWxsPSIjQUREMUIyIiByeD0iMTEiIHJ5PSIxMSIgc3R5bGU9InN0cm9rZTojMTgxODE4O3N0cm9rZS13aWR0aDoxOyIvPjxwYXRoIGQ9Ik0xMjM2Ljg3NSwyNy4yNSBMMTIzNi44NzUsMjkgTDEyNDEuODEyNSwyOSBMMTI0MS44MTI1LDI3LjI1IEwxMjM2Ljg3NSwyNy4yNSBaIE0xMjM3LjU2MjUsMjcuOTM3NSBRMTIzNy41NjI1LDI3LjkzNzUgMTIzNy41NjI1LDE4Ljc1IEwxMjM1LjgxMjUsMTguNzUgUTEyMzUuODEyNSwxOC43NSAxMjM1LjgxMjUsMjcuOTM3NSBMMTIzNy41NjI1LDI3LjkzNzUgWiBNMTI0MS4xMjUsMjcuOTM3NSBMMTI0Mi44NzUsMjcuOTM3NSBRMTI0Mi44NzUsMjcuOTM3NSAxMjQyLjg3NSwyNS4xMjUgTDEyNDEuMTI1LDI1LjEyNSBRMTI0MS4xMjUsMjUuMTI1IDEyNDEuMTI1LDI3LjkzNzUgWiBNMTI0MS4xMjUsMTguNzUgUTEyNDEuMTI1LDE4Ljc1IDEyNDEuMTI1LDIxLjU2MjUgTDEyNDIuODc1LDIxLjU2MjUgUTEyNDIuODc1LDIxLjU2MjUgMTI0Mi44NzUsMTguNzUgTDEyNDEuMTI1LDE4Ljc1IFogTTEyMzYuODc1LDE5LjQzNzUgTDEyNDEuODEyNSwxOS40Mzc1IEwxMjQxLjgxMjUsMTcuNjg3NSBMMTIzNi44NzUsMTcuNjg3NSBMMTIzNi44NzUsMTkuNDM3NSBaICIgZmlsbD0iIzAwMDAwMCIvPjx0ZXh0IGZpbGw9IiMwMDAwMDAiIGZvbnQtZmFtaWx5PSJzYW5zLXNlcmlmIiBmb250LXNpemU9IjE0IiBsZW5ndGhBZGp1c3Q9InNwYWNpbmciIHRleHRMZW5ndGg9IjI4IiB4PSIxMjU5Ljc1IiB5PSIyOC43NDIyIj5Vc2VyPC90ZXh0PjxsaW5lIHN0eWxlPSJzdHJva2U6IzE4MTgxODtzdHJva2Utd2lkdGg6MC41OyIgeDE9IjExODkuNSIgeDI9IjEzMjUuNSIgeTE9IjM5IiB5Mj0iMzkiLz48cmVjdCBmaWxsPSJub25lIiBoZWlnaHQ9IjYiIHN0eWxlPSJzdHJva2U6I0M4MjkzMDtzdHJva2Utd2lkdGg6MTsiIHdpZHRoPSI2IiB4PSIxMTk2LjUiIHk9IjQ4Ljk5MjIiLz48dGV4dCBmaWxsPSIjMDAwMDAwIiBmb250LWZhbWlseT0ic2Fucy1zZXJpZiIgZm9udC1zaXplPSIxNCIgbGVuZ3RoQWRqdXN0PSJzcGFjaW5nIiB0ZXh0TGVuZ3RoPSIxMTIiIHg9IjEyMDguNSIgeT0iNTYuMjM0NCI+dXNlcm5hbWU6IFN0cmluZzwvdGV4dD48cmVjdCBmaWxsPSJub25lIiBoZWlnaHQ9IjYiIHN0eWxlPSJzdHJva2U6I0M4MjkzMDtzdHJva2Utd2lkdGg6MTsiIHdpZHRoPSI2IiB4PSIxMTk2LjUiIHk9IjYzLjk3NjYiLz48dGV4dCBmaWxsPSIjMDAwMDAwIiBmb250LWZhbWlseT0ic2Fucy1zZXJpZiIgZm9udC1zaXplPSIxNCIgbGVuZ3RoQWRqdXN0PSJzcGFjaW5nIiB0ZXh0TGVuZ3RoPSI5MSIgeD0iMTIwOC41IiB5PSI3MS4yMTg4Ij5lbWFpbDogU3RyaW5nPC90ZXh0PjxsaW5lIHN0eWxlPSJzdHJva2U6IzE4MTgxODtzdHJva2Utd2lkdGg6MC41OyIgeDE9IjExODkuNSIgeDI9IjEzMjUuNSIgeTE9Ijc2Ljk2ODgiIHkyPSI3Ni45Njg4Ii8+PC9nPjwhLS1jbGFzcyBSZWNpcGVDcmVhdG9yLS0+PGcgY2xhc3M9ImVudGl0eSIgZGF0YS1lbnRpdHk9IlJlY2lwZUNyZWF0b3IiIGRhdGEtc291cmNlLWxpbmU9IjM5IiBkYXRhLXVpZD0iZW50MDAwNyIgaWQ9ImVudGl0eV9SZWNpcGVDcmVhdG9yIj48cmVjdCBmaWxsPSIjRjFGMUYxIiBoZWlnaHQ9IjEyMi45MjE5IiByeD0iMi41IiByeT0iMi41IiBzdHlsZT0ic3Ryb2tlOiMxODE4MTg7c3Ryb2tlLXdpZHRoOjAuNTsiIHdpZHRoPSIyMDEiIHg9IjciIHk9IjE0NiIvPjxlbGxpcHNlIGN4PSI1Ny43NSIgY3k9IjE2MiIgZmlsbD0iI0FERDFCMiIgcng9IjExIiByeT0iMTEiIHN0eWxlPSJzdHJva2U6IzE4MTgxODtzdHJva2Utd2lkdGg6MTsiLz48cGF0aCBkPSJNNTUuMzc1LDE2Ni4yNSBMNTUuMzc1LDE2OCBMNjAuMzEyNSwxNjggTDYwLjMxMjUsMTY2LjI1IEw1NS4zNzUsMTY2LjI1IFogTTU2LjA2MjUsMTY2LjkzNzUgUTU2LjA2MjUsMTY2LjkzNzUgNTYuMDYyNSwxNTcuNzUgTDU0LjMxMjUsMTU3Ljc1IFE1NC4zMTI1LDE1Ny43NSA1NC4zMTI1LDE2Ni45Mzc1IEw1Ni4wNjI1LDE2Ni45Mzc1IFogTTU5LjYyNSwxNjYuOTM3NSBMNjEuMzc1LDE2Ni45Mzc1IFE2MS4zNzUsMTY2LjkzNzUgNjEuMzc1LDE2NC4xMjUgTDU5LjYyNSwxNjQuMTI1IFE1OS42MjUsMTY0LjEyNSA1OS42MjUsMTY2LjkzNzUgWiBNNTkuNjI1LDE1Ny43NSBRNTkuNjI1LDE1Ny43NSA1OS42MjUsMTYwLjU2MjUgTDYxLjM3NSwxNjAuNTYyNSBRNjEuMzc1LDE2MC41NjI1IDYxLjM3NSwxNTcuNzUgTDU5LjYyNSwxNTcuNzUgWiBNNTUuMzc1LDE1OC40Mzc1IEw2MC4zMTI1LDE1OC40Mzc1IEw2MC4zMTI1LDE1Ni42ODc1IEw1NS4zNzUsMTU2LjY4NzUgTDU1LjM3NSwxNTguNDM3NSBaICIgZmlsbD0iIzAwMDAwMCIvPjx0ZXh0IGZpbGw9IiMwMDAwMDAiIGZvbnQtZmFtaWx5PSJzYW5zLXNlcmlmIiBmb250LXNpemU9IjE0IiBsZW5ndGhBZGp1c3Q9InNwYWNpbmciIHRleHRMZW5ndGg9IjkxIiB4PSI3OC4yNSIgeT0iMTY3Ljc0MjIiPlJlY2lwZUNyZWF0b3I8L3RleHQ+PGxpbmUgc3R5bGU9InN0cm9rZTojMTgxODE4O3N0cm9rZS13aWR0aDowLjU7IiB4MT0iOCIgeDI9IjIwNyIgeTE9IjE3OCIgeTI9IjE3OCIvPjxsaW5lIHN0eWxlPSJzdHJva2U6IzE4MTgxODtzdHJva2Utd2lkdGg6MC41OyIgeDE9IjgiIHgyPSIyMDciIHkxPSIxODYiIHkyPSIxODYiLz48ZWxsaXBzZSBjeD0iMTgiIGN5PSIxOTguOTkyMiIgZmlsbD0iIzg0QkU4NCIgcng9IjMiIHJ5PSIzIiBzdHlsZT0ic3Ryb2tlOiMwMzgwNDg7c3Ryb2tlLXdpZHRoOjE7Ii8+PHRleHQgZmlsbD0iIzAwMDAwMCIgZm9udC1mYW1pbHk9InNhbnMtc2VyaWYiIGZvbnQtc2l6ZT0iMTQiIGxlbmd0aEFkanVzdD0ic3BhY2luZyIgdGV4dExlbmd0aD0iMTU0IiB4PSIyNyIgeT0iMjAzLjIzNDQiPmNyZWF0ZVJlY2lwZSgpOiBSZWNpcGU8L3RleHQ+PGVsbGlwc2UgY3g9IjE4IiBjeT0iMjEzLjk3NjYiIGZpbGw9IiM4NEJFODQiIHJ4PSIzIiByeT0iMyIgc3R5bGU9InN0cm9rZTojMDM4MDQ4O3N0cm9rZS13aWR0aDoxOyIvPjx0ZXh0IGZpbGw9IiMwMDAwMDAiIGZvbnQtZmFtaWx5PSJzYW5zLXNlcmlmIiBmb250LXNpemU9IjE0IiBsZW5ndGhBZGp1c3Q9InNwYWNpbmciIHRleHRMZW5ndGg9IjE3NSIgeD0iMjciIHk9IjIxOC4yMTg4Ij5tYW5hZ2VDb2xsZWN0aW9ucygpOiB2b2lkPC90ZXh0PjxlbGxpcHNlIGN4PSIxOCIgY3k9IjIyOC45NjA5IiBmaWxsPSIjODRCRTg0IiByeD0iMyIgcnk9IjMiIHN0eWxlPSJzdHJva2U6IzAzODA0ODtzdHJva2Utd2lkdGg6MTsiLz48dGV4dCBmaWxsPSIjMDAwMDAwIiBmb250LWZhbWlseT0ic2Fucy1zZXJpZiIgZm9udC1zaXplPSIxNCIgbGVuZ3RoQWRqdXN0PSJzcGFjaW5nIiB0ZXh0TGVuZ3RoPSIxNDAiIHg9IjI3IiB5PSIyMzMuMjAzMSI+ZXhwb3J0UmVjaXBlKCk6IEZpbGU8L3RleHQ+PGVsbGlwc2UgY3g9IjE4IiBjeT0iMjQzLjk0NTMiIGZpbGw9IiM4NEJFODQiIHJ4PSIzIiByeT0iMyIgc3R5bGU9InN0cm9rZTojMDM4MDQ4O3N0cm9rZS13aWR0aDoxOyIvPjx0ZXh0IGZpbGw9IiMwMDAwMDAiIGZvbnQtZmFtaWx5PSJzYW5zLXNlcmlmIiBmb250LXNpemU9IjE0IiBsZW5ndGhBZGp1c3Q9InNwYWNpbmciIHRleHRMZW5ndGg9IjEyNiIgeD0iMjciIHk9IjI0OC4xODc1Ij5yYXRlUmVjaXBlKCk6IHZvaWQ8L3RleHQ+PGVsbGlwc2UgY3g9IjE4IiBjeT0iMjU4LjkyOTciIGZpbGw9IiM4NEJFODQiIHJ4PSIzIiByeT0iMyIgc3R5bGU9InN0cm9rZTojMDM4MDQ4O3N0cm9rZS13aWR0aDoxOyIvPjx0ZXh0IGZpbGw9IiMwMDAwMDAiIGZvbnQtZmFtaWx5PSJzYW5zLXNlcmlmIiBmb250LXNpemU9IjE0IiBsZW5ndGhBZGp1c3Q9InNwYWNpbmciIHRleHRMZW5ndGg9IjE2MSIgeD0iMjciIHk9IjI2My4xNzE5Ij5wcm92aWRlRmVlZGJhY2soKTogdm9pZDwvdGV4dD48L2c+PCEtLWNsYXNzIFJlY2lwZU93bmVyLS0+PGcgY2xhc3M9ImVudGl0eSIgZGF0YS1lbnRpdHk9IlJlY2lwZU93bmVyIiBkYXRhLXNvdXJjZS1saW5lPSI0NyIgZGF0YS11aWQ9ImVudDAwMDgiIGlkPSJlbnRpdHlfUmVjaXBlT3duZXIiPjxyZWN0IGZpbGw9IiNGMUYxRjEiIGhlaWdodD0iNjIuOTg0NCIgcng9IjIuNSIgcnk9IjIuNSIgc3R5bGU9InN0cm9rZTojMTgxODE4O3N0cm9rZS13aWR0aDowLjU7IiB3aWR0aD0iMTY2IiB4PSIyNDMuNSIgeT0iMTc2Ii8+PGVsbGlwc2UgY3g9IjI4NC4xNSIgY3k9IjE5MiIgZmlsbD0iI0FERDFCMiIgcng9IjExIiByeT0iMTEiIHN0eWxlPSJzdHJva2U6IzE4MTgxODtzdHJva2Utd2lkdGg6MTsiLz48cGF0aCBkPSJNMjgxLjc3NSwxOTYuMjUgTDI4MS43NzUsMTk4IEwyODYuNzEyNSwxOTggTDI4Ni43MTI1LDE5Ni4yNSBMMjgxLjc3NSwxOTYuMjUgWiBNMjgyLjQ2MjUsMTk2LjkzNzUgUTI4Mi40NjI1LDE5Ni45Mzc1IDI4Mi40NjI1LDE4Ny43NSBMMjgwLjcxMjUsMTg3Ljc1IFEyODAuNzEyNSwxODcuNzUgMjgwLjcxMjUsMTk2LjkzNzUgTDI4Mi40NjI1LDE5Ni45Mzc1IFogTTI4Ni4wMjUsMTk2LjkzNzUgTDI4Ny43NzUsMTk2LjkzNzUgUTI4Ny43NzUsMTk2LjkzNzUgMjg3Ljc3NSwxOTQuMTI1IEwyODYuMDI1LDE5NC4xMjUgUTI4Ni4wMjUsMTk0LjEyNSAyODYuMDI1LDE5Ni45Mzc1IFogTTI4Ni4wMjUsMTg3Ljc1IFEyODYuMDI1LDE4Ny43NSAyODYuMDI1LDE5MC41NjI1IEwyODcuNzc1LDE5MC41NjI1IFEyODcuNzc1LDE5MC41NjI1IDI4Ny43NzUsMTg3Ljc1IEwyODYuMDI1LDE4Ny43NSBaIE0yODEuNzc1LDE4OC40Mzc1IEwyODYuNzEyNSwxODguNDM3NSBMMjg2LjcxMjUsMTg2LjY4NzUgTDI4MS43NzUsMTg2LjY4NzUgTDI4MS43NzUsMTg4LjQzNzUgWiAiIGZpbGw9IiMwMDAwMDAiLz48dGV4dCBmaWxsPSIjMDAwMDAwIiBmb250LWZhbWlseT0ic2Fucy1zZXJpZiIgZm9udC1zaXplPSIxNCIgbGVuZ3RoQWRqdXN0PSJzcGFjaW5nIiB0ZXh0TGVuZ3RoPSI3NyIgeD0iMzAzLjg1IiB5PSIxOTcuNzQyMiI+UmVjaXBlT3duZXI8L3RleHQ+PGxpbmUgc3R5bGU9InN0cm9rZTojMTgxODE4O3N0cm9rZS13aWR0aDowLjU7IiB4MT0iMjQ0LjUiIHgyPSI0MDguNSIgeTE9IjIwOCIgeTI9IjIwOCIvPjxsaW5lIHN0eWxlPSJzdHJva2U6IzE4MTgxODtzdHJva2Utd2lkdGg6MC41OyIgeDE9IjI0NC41IiB4Mj0iNDA4LjUiIHkxPSIyMTYiIHkyPSIyMTYiLz48ZWxsaXBzZSBjeD0iMjU0LjUiIGN5PSIyMjguOTkyMiIgZmlsbD0iIzg0QkU4NCIgcng9IjMiIHJ5PSIzIiBzdHlsZT0ic3Ryb2tlOiMwMzgwNDg7c3Ryb2tlLXdpZHRoOjE7Ii8+PHRleHQgZmlsbD0iIzAwMDAwMCIgZm9udC1mYW1pbHk9InNhbnMtc2VyaWYiIGZvbnQtc2l6ZT0iMTQiIGxlbmd0aEFkanVzdD0ic3BhY2luZyIgdGV4dExlbmd0aD0iMTQwIiB4PSIyNjMuNSIgeT0iMjMzLjIzNDQiPmV4cG9ydFJlY2lwZSgpOiBGaWxlPC90ZXh0PjwvZz48IS0tY2xhc3MgU3lzdGVtT3duZXItLT48ZyBjbGFzcz0iZW50aXR5IiBkYXRhLWVudGl0eT0iU3lzdGVtT3duZXIiIGRhdGEtc291cmNlLWxpbmU9IjUxIiBkYXRhLXVpZD0iZW50MDAwOSIgaWQ9ImVudGl0eV9TeXN0ZW1Pd25lciI+PHJlY3QgZmlsbD0iI0YxRjFGMSIgaGVpZ2h0PSI2Mi45ODQ0IiByeD0iMi41IiByeT0iMi41IiBzdHlsZT0ic3Ryb2tlOiMxODE4MTg7c3Ryb2tlLXdpZHRoOjAuNTsiIHdpZHRoPSIyMDEiIHg9IjQ0NSIgeT0iMTc2Ii8+PGVsbGlwc2UgY3g9IjUwMi43NSIgY3k9IjE5MiIgZmlsbD0iI0FERDFCMiIgcng9IjExIiByeT0iMTEiIHN0eWxlPSJzdHJva2U6IzE4MTgxODtzdHJva2Utd2lkdGg6MTsiLz48cGF0aCBkPSJNNTAwLjM3NSwxOTYuMjUgTDUwMC4zNzUsMTk4IEw1MDUuMzEyNSwxOTggTDUwNS4zMTI1LDE5Ni4yNSBMNTAwLjM3NSwxOTYuMjUgWiBNNTAxLjA2MjUsMTk2LjkzNzUgUTUwMS4wNjI1LDE5Ni45Mzc1IDUwMS4wNjI1LDE4Ny43NSBMNDk5LjMxMjUsMTg3Ljc1IFE0OTkuMzEyNSwxODcuNzUgNDk5LjMxMjUsMTk2LjkzNzUgTDUwMS4wNjI1LDE5Ni45Mzc1IFogTTUwNC42MjUsMTk2LjkzNzUgTDUwNi4zNzUsMTk2LjkzNzUgUTUwNi4zNzUsMTk2LjkzNzUgNTA2LjM3NSwxOTQuMTI1IEw1MDQuNjI1LDE5NC4xMjUgUTUwNC42MjUsMTk0LjEyNSA1MDQuNjI1LDE5Ni45Mzc1IFogTTUwNC42MjUsMTg3Ljc1IFE1MDQuNjI1LDE4Ny43NSA1MDQuNjI1LDE5MC41NjI1IEw1MDYuMzc1LDE5MC41NjI1IFE1MDYuMzc1LDE5MC41NjI1IDUwNi4zNzUsMTg3Ljc1IEw1MDQuNjI1LDE4Ny43NSBaIE01MDAuMzc1LDE4OC40Mzc1IEw1MDUuMzEyNSwxODguNDM3NSBMNTA1LjMxMjUsMTg2LjY4NzUgTDUwMC4zNzUsMTg2LjY4NzUgTDUwMC4zNzUsMTg4LjQzNzUgWiAiIGZpbGw9IiMwMDAwMDAiLz48dGV4dCBmaWxsPSIjMDAwMDAwIiBmb250LWZhbWlseT0ic2Fucy1zZXJpZiIgZm9udC1zaXplPSIxNCIgbGVuZ3RoQWRqdXN0PSJzcGFjaW5nIiB0ZXh0TGVuZ3RoPSI3NyIgeD0iNTIzLjI1IiB5PSIxOTcuNzQyMiI+U3lzdGVtT3duZXI8L3RleHQ+PGxpbmUgc3R5bGU9InN0cm9rZTojMTgxODE4O3N0cm9rZS13aWR0aDowLjU7IiB4MT0iNDQ2IiB4Mj0iNjQ1IiB5MT0iMjA4IiB5Mj0iMjA4Ii8+PGxpbmUgc3R5bGU9InN0cm9rZTojMTgxODE4O3N0cm9rZS13aWR0aDowLjU7IiB4MT0iNDQ2IiB4Mj0iNjQ1IiB5MT0iMjE2IiB5Mj0iMjE2Ii8+PGVsbGlwc2UgY3g9IjQ1NiIgY3k9IjIyOC45OTIyIiBmaWxsPSIjODRCRTg0IiByeD0iMyIgcnk9IjMiIHN0eWxlPSJzdHJva2U6IzAzODA0ODtzdHJva2Utd2lkdGg6MTsiLz48dGV4dCBmaWxsPSIjMDAwMDAwIiBmb250LWZhbWlseT0ic2Fucy1zZXJpZiIgZm9udC1zaXplPSIxNCIgbGVuZ3RoQWRqdXN0PSJzcGFjaW5nIiB0ZXh0TGVuZ3RoPSIxNzUiIHg9IjQ2NSIgeT0iMjMzLjIzNDQiPmdlbmVyYXRlUmVwb3J0cygpOiBSZXBvcnQ8L3RleHQ+PC9nPjwhLS1jbGFzcyBFbmRVc2VyLS0+PGcgY2xhc3M9ImVudGl0eSIgZGF0YS1lbnRpdHk9IkVuZFVzZXIiIGRhdGEtc291cmNlLWxpbmU9IjU1IiBkYXRhLXVpZD0iZW50MDAxMCIgaWQ9ImVudGl0eV9FbmRVc2VyIj48cmVjdCBmaWxsPSIjRjFGMUYxIiBoZWlnaHQ9IjkyLjk1MzEiIHJ4PSIyLjUiIHJ5PSIyLjUiIHN0eWxlPSJzdHJva2U6IzE4MTgxODtzdHJva2Utd2lkdGg6MC41OyIgd2lkdGg9IjIyOSIgeD0iNjgxIiB5PSIxNjEiLz48ZWxsaXBzZSBjeD0iNzY2Ljc1IiBjeT0iMTc3IiBmaWxsPSIjQUREMUIyIiByeD0iMTEiIHJ5PSIxMSIgc3R5bGU9InN0cm9rZTojMTgxODE4O3N0cm9rZS13aWR0aDoxOyIvPjxwYXRoIGQ9Ik03NjQuMzc1LDE4MS4yNSBMNzY0LjM3NSwxODMgTDc2OS4zMTI1LDE4MyBMNzY5LjMxMjUsMTgxLjI1IEw3NjQuMzc1LDE4MS4yNSBaIE03NjUuMDYyNSwxODEuOTM3NSBRNzY1LjA2MjUsMTgxLjkzNzUgNzY1LjA2MjUsMTcyLjc1IEw3NjMuMzEyNSwxNzIuNzUgUTc2My4zMTI1LDE3Mi43NSA3NjMuMzEyNSwxODEuOTM3NSBMNzY1LjA2MjUsMTgxLjkzNzUgWiBNNzY4LjYyNSwxODEuOTM3NSBMNzcwLjM3NSwxODEuOTM3NSBRNzcwLjM3NSwxODEuOTM3NSA3NzAuMzc1LDE3OS4xMjUgTDc2OC42MjUsMTc5LjEyNSBRNzY4LjYyNSwxNzkuMTI1IDc2OC42MjUsMTgxLjkzNzUgWiBNNzY4LjYyNSwxNzIuNzUgUTc2OC42MjUsMTcyLjc1IDc2OC42MjUsMTc1LjU2MjUgTDc3MC4zNzUsMTc1LjU2MjUgUTc3MC4zNzUsMTc1LjU2MjUgNzcwLjM3NSwxNzIuNzUgTDc2OC42MjUsMTcyLjc1IFogTTc2NC4zNzUsMTczLjQzNzUgTDc2OS4zMTI1LDE3My40Mzc1IEw3NjkuMzEyNSwxNzEuNjg3NSBMNzY0LjM3NSwxNzEuNjg3NSBMNzY0LjM3NSwxNzMuNDM3NSBaICIgZmlsbD0iIzAwMDAwMCIvPjx0ZXh0IGZpbGw9IiMwMDAwMDAiIGZvbnQtZmFtaWx5PSJzYW5zLXNlcmlmIiBmb250LXNpemU9IjE0IiBsZW5ndGhBZGp1c3Q9InNwYWNpbmciIHRleHRMZW5ndGg9IjQ5IiB4PSI3ODcuMjUiIHk9IjE4Mi43NDIyIj5FbmRVc2VyPC90ZXh0PjxsaW5lIHN0eWxlPSJzdHJva2U6IzE4MTgxODtzdHJva2Utd2lkdGg6MC41OyIgeDE9IjY4MiIgeDI9IjkwOSIgeTE9IjE5MyIgeTI9IjE5MyIvPjxsaW5lIHN0eWxlPSJzdHJva2U6IzE4MTgxODtzdHJva2Utd2lkdGg6MC41OyIgeDE9IjY4MiIgeDI9IjkwOSIgeTE9IjIwMSIgeTI9IjIwMSIvPjxlbGxpcHNlIGN4PSI2OTIiIGN5PSIyMTMuOTkyMiIgZmlsbD0iIzg0QkU4NCIgcng9IjMiIHJ5PSIzIiBzdHlsZT0ic3Ryb2tlOiMwMzgwNDg7c3Ryb2tlLXdpZHRoOjE7Ii8+PHRleHQgZmlsbD0iIzAwMDAwMCIgZm9udC1mYW1pbHk9InNhbnMtc2VyaWYiIGZvbnQtc2l6ZT0iMTQiIGxlbmd0aEFkanVzdD0ic3BhY2luZyIgdGV4dExlbmd0aD0iMTQwIiB4PSI3MDEiIHk9IjIxOC4yMzQ0Ij52aWV3UmVjaXBlKCk6IFN0cmluZzwvdGV4dD48ZWxsaXBzZSBjeD0iNjkyIiBjeT0iMjI4Ljk3NjYiIGZpbGw9IiM4NEJFODQiIHJ4PSIzIiByeT0iMyIgc3R5bGU9InN0cm9rZTojMDM4MDQ4O3N0cm9rZS13aWR0aDoxOyIvPjx0ZXh0IGZpbGw9IiMwMDAwMDAiIGZvbnQtZmFtaWx5PSJzYW5zLXNlcmlmIiBmb250LXNpemU9IjE0IiBsZW5ndGhBZGp1c3Q9InNwYWNpbmciIHRleHRMZW5ndGg9IjIwMyIgeD0iNzAxIiB5PSIyMzMuMjE4OCI+c2VhcmNoUmVjaXBlcygpOiBMaXN0Jmx0O1JlY2lwZSZndDs8L3RleHQ+PGVsbGlwc2UgY3g9IjY5MiIgY3k9IjI0My45NjA5IiBmaWxsPSIjODRCRTg0IiByeD0iMyIgcnk9IjMiIHN0eWxlPSJzdHJva2U6IzAzODA0ODtzdHJva2Utd2lkdGg6MTsiLz48dGV4dCBmaWxsPSIjMDAwMDAwIiBmb250LWZhbWlseT0ic2Fucy1zZXJpZiIgZm9udC1zaXplPSIxNCIgbGVuZ3RoQWRqdXN0PSJzcGFjaW5nIiB0ZXh0TGVuZ3RoPSIxMjYiIHg9IjcwMSIgeT0iMjQ4LjIwMzEiPnJhdGVSZWNpcGUoKTogdm9pZDwvdGV4dD48L2c+PCEtLWNsYXNzIFN5c3RlbUFkbWluaXN0cmF0b3ItLT48ZyBjbGFzcz0iZW50aXR5IiBkYXRhLWVudGl0eT0iU3lzdGVtQWRtaW5pc3RyYXRvciIgZGF0YS1zb3VyY2UtbGluZT0iNjEiIGRhdGEtdWlkPSJlbnQwMDExIiBpZD0iZW50aXR5X1N5c3RlbUFkbWluaXN0cmF0b3IiPjxyZWN0IGZpbGw9IiNGMUYxRjEiIGhlaWdodD0iNjIuOTg0NCIgcng9IjIuNSIgcnk9IjIuNSIgc3R5bGU9InN0cm9rZTojMTgxODE4O3N0cm9rZS13aWR0aDowLjU7IiB3aWR0aD0iMTgwIiB4PSI5NDUuNSIgeT0iMTc2Ii8+PGVsbGlwc2UgY3g9Ijk2Ny4yNSIgY3k9IjE5MiIgZmlsbD0iI0FERDFCMiIgcng9IjExIiByeT0iMTEiIHN0eWxlPSJzdHJva2U6IzE4MTgxODtzdHJva2Utd2lkdGg6MTsiLz48cGF0aCBkPSJNOTY0Ljg3NSwxOTYuMjUgTDk2NC44NzUsMTk4IEw5NjkuODEyNSwxOTggTDk2OS44MTI1LDE5Ni4yNSBMOTY0Ljg3NSwxOTYuMjUgWiBNOTY1LjU2MjUsMTk2LjkzNzUgUTk2NS41NjI1LDE5Ni45Mzc1IDk2NS41NjI1LDE4Ny43NSBMOTYzLjgxMjUsMTg3Ljc1IFE5NjMuODEyNSwxODcuNzUgOTYzLjgxMjUsMTk2LjkzNzUgTDk2NS41NjI1LDE5Ni45Mzc1IFogTTk2OS4xMjUsMTk2LjkzNzUgTDk3MC44NzUsMTk2LjkzNzUgUTk3MC44NzUsMTk2LjkzNzUgOTcwLjg3NSwxOTQuMTI1IEw5NjkuMTI1LDE5NC4xMjUgUTk2OS4xMjUsMTk0LjEyNSA5NjkuMTI1LDE5Ni45Mzc1IFogTTk2OS4xMjUsMTg3Ljc1IFE5NjkuMTI1LDE4Ny43NSA5NjkuMTI1LDE5MC41NjI1IEw5NzAuODc1LDE5MC41NjI1IFE5NzAuODc1LDE5MC41NjI1IDk3MC44NzUsMTg3Ljc1IEw5NjkuMTI1LDE4Ny43NSBaIE05NjQuODc1LDE4OC40Mzc1IEw5NjkuODEyNSwxODguNDM3NSBMOTY5LjgxMjUsMTg2LjY4NzUgTDk2NC44NzUsMTg2LjY4NzUgTDk2NC44NzUsMTg4LjQzNzUgWiAiIGZpbGw9IiMwMDAwMDAiLz48dGV4dCBmaWxsPSIjMDAwMDAwIiBmb250LWZhbWlseT0ic2Fucy1zZXJpZiIgZm9udC1zaXplPSIxNCIgbGVuZ3RoQWRqdXN0PSJzcGFjaW5nIiB0ZXh0TGVuZ3RoPSIxMzMiIHg9Ijk4Mi43NSIgeT0iMTk3Ljc0MjIiPlN5c3RlbUFkbWluaXN0cmF0b3I8L3RleHQ+PGxpbmUgc3R5bGU9InN0cm9rZTojMTgxODE4O3N0cm9rZS13aWR0aDowLjU7IiB4MT0iOTQ2LjUiIHgyPSIxMTI0LjUiIHkxPSIyMDgiIHkyPSIyMDgiLz48bGluZSBzdHlsZT0ic3Ryb2tlOiMxODE4MTg7c3Ryb2tlLXdpZHRoOjAuNTsiIHgxPSI5NDYuNSIgeDI9IjExMjQuNSIgeTE9IjIxNiIgeTI9IjIxNiIvPjxlbGxpcHNlIGN4PSI5NTYuNSIgY3k9IjIyOC45OTIyIiBmaWxsPSIjODRCRTg0IiByeD0iMyIgcnk9IjMiIHN0eWxlPSJzdHJva2U6IzAzODA0ODtzdHJva2Utd2lkdGg6MTsiLz48dGV4dCBmaWxsPSIjMDAwMDAwIiBmb250LWZhbWlseT0ic2Fucy1zZXJpZiIgZm9udC1zaXplPSIxNCIgbGVuZ3RoQWRqdXN0PSJzcGFjaW5nIiB0ZXh0TGVuZ3RoPSIxNTQiIHg9Ijk2NS41IiB5PSIyMzMuMjM0NCI+bWFpbnRhaW5TeXN0ZW0oKTogdm9pZDwvdGV4dD48L2c+PCEtLWNsYXNzIEFJUmVjaXBlQXNzaXN0YW50LS0+PGcgY2xhc3M9ImVudGl0eSIgZGF0YS1lbnRpdHk9IkFJUmVjaXBlQXNzaXN0YW50IiBkYXRhLXNvdXJjZS1saW5lPSI2NSIgZGF0YS11aWQ9ImVudDAwMTIiIGlkPSJlbnRpdHlfQUlSZWNpcGVBc3Npc3RhbnQiPjxyZWN0IGZpbGw9IiNGMUYxRjEiIGhlaWdodD0iNjIuOTg0NCIgcng9IjIuNSIgcnk9IjIuNSIgc3R5bGU9InN0cm9rZTojMTgxODE4O3N0cm9rZS13aWR0aDowLjU7IiB3aWR0aD0iMTk0IiB4PSIxMTYwLjUiIHk9IjE3NiIvPjxlbGxpcHNlIGN4PSIxMTk0Ljg1IiBjeT0iMTkyIiBmaWxsPSIjQUREMUIyIiByeD0iMTEiIHJ5PSIxMSIgc3R5bGU9InN0cm9rZTojMTgxODE4O3N0cm9rZS13aWR0aDoxOyIvPjxwYXRoIGQ9Ik0xMTkyLjQ3NSwxOTYuMjUgTDExOTIuNDc1LDE5OCBMMTE5Ny40MTI1LDE5OCBMMTE5Ny40MTI1LDE5Ni4yNSBMMTE5Mi40NzUsMTk2LjI1IFogTTExOTMuMTYyNSwxOTYuOTM3NSBRMTE5My4xNjI1LDE5Ni45Mzc1IDExOTMuMTYyNSwxODcuNzUgTDExOTEuNDEyNSwxODcuNzUgUTExOTEuNDEyNSwxODcuNzUgMTE5MS40MTI1LDE5Ni45Mzc1IEwxMTkzLjE2MjUsMTk2LjkzNzUgWiBNMTE5Ni43MjUsMTk2LjkzNzUgTDExOTguNDc1LDE5Ni45Mzc1IFExMTk4LjQ3NSwxOTYuOTM3NSAxMTk4LjQ3NSwxOTQuMTI1IEwxMTk2LjcyNSwxOTQuMTI1IFExMTk2LjcyNSwxOTQuMTI1IDExOTYuNzI1LDE5Ni45Mzc1IFogTTExOTYuNzI1LDE4Ny43NSBRMTE5Ni43MjUsMTg3Ljc1IDExOTYuNzI1LDE5MC41NjI1IEwxMTk4LjQ3NSwxOTAuNTYyNSBRMTE5OC40NzUsMTkwLjU2MjUgMTE5OC40NzUsMTg3Ljc1IEwxMTk2LjcyNSwxODcuNzUgWiBNMTE5Mi40NzUsMTg4LjQzNzUgTDExOTcuNDEyNSwxODguNDM3NSBMMTE5Ny40MTI1LDE4Ni42ODc1IEwxMTkyLjQ3NSwxODYuNjg3NSBMMTE5Mi40NzUsMTg4LjQzNzUgWiAiIGZpbGw9IiMwMDAwMDAiLz48dGV4dCBmaWxsPSIjMDAwMDAwIiBmb250LWZhbWlseT0ic2Fucy1zZXJpZiIgZm9udC1zaXplPSIxNCIgbGVuZ3RoQWRqdXN0PSJzcGFjaW5nIiB0ZXh0TGVuZ3RoPSIxMTkiIHg9IjEyMTMuMTUiIHk9IjE5Ny43NDIyIj5BSVJlY2lwZUFzc2lzdGFudDwvdGV4dD48bGluZSBzdHlsZT0ic3Ryb2tlOiMxODE4MTg7c3Ryb2tlLXdpZHRoOjAuNTsiIHgxPSIxMTYxLjUiIHgyPSIxMzUzLjUiIHkxPSIyMDgiIHkyPSIyMDgiLz48bGluZSBzdHlsZT0ic3Ryb2tlOiMxODE4MTg7c3Ryb2tlLXdpZHRoOjAuNTsiIHgxPSIxMTYxLjUiIHgyPSIxMzUzLjUiIHkxPSIyMTYiIHkyPSIyMTYiLz48ZWxsaXBzZSBjeD0iMTE3MS41IiBjeT0iMjI4Ljk5MjIiIGZpbGw9IiM4NEJFODQiIHJ4PSIzIiByeT0iMyIgc3R5bGU9InN0cm9rZTojMDM4MDQ4O3N0cm9rZS13aWR0aDoxOyIvPjx0ZXh0IGZpbGw9IiMwMDAwMDAiIGZvbnQtZmFtaWx5PSJzYW5zLXNlcmlmIiBmb250LXNpemU9IjE0IiBsZW5ndGhBZGp1c3Q9InNwYWNpbmciIHRleHRMZW5ndGg9IjE2OCIgeD0iMTE4MC41IiB5PSIyMzMuMjM0NCI+YXNzaXN0Q3JlYXRpb24oKTogUmVjaXBlPC90ZXh0PjwvZz48IS0tY2xhc3MgRGF0YWJhc2VNYW5hZ2VyLS0+PGcgY2xhc3M9ImVudGl0eSIgZGF0YS1lbnRpdHk9IkRhdGFiYXNlTWFuYWdlciIgZGF0YS1zb3VyY2UtbGluZT0iNjkiIGRhdGEtdWlkPSJlbnQwMDEzIiBpZD0iZW50aXR5X0RhdGFiYXNlTWFuYWdlciI+PHJlY3QgZmlsbD0iI0YxRjFGMSIgaGVpZ2h0PSI2Mi45ODQ0IiByeD0iMi41IiByeT0iMi41IiBzdHlsZT0ic3Ryb2tlOiMxODE4MTg7c3Ryb2tlLXdpZHRoOjAuNTsiIHdpZHRoPSIxODAiIHg9IjEzODkuNSIgeT0iMTc2Ii8+PGVsbGlwc2UgY3g9IjE0MjMuODUiIGN5PSIxOTIiIGZpbGw9IiNBREQxQjIiIHJ4PSIxMSIgcnk9IjExIiBzdHlsZT0ic3Ryb2tlOiMxODE4MTg7c3Ryb2tlLXdpZHRoOjE7Ii8+PHBhdGggZD0iTTE0MjEuNDc1LDE5Ni4yNSBMMTQyMS40NzUsMTk4IEwxNDI2LjQxMjUsMTk4IEwxNDI2LjQxMjUsMTk2LjI1IEwxNDIxLjQ3NSwxOTYuMjUgWiBNMTQyMi4xNjI1LDE5Ni45Mzc1IFExNDIyLjE2MjUsMTk2LjkzNzUgMTQyMi4xNjI1LDE4Ny43NSBMMTQyMC40MTI1LDE4Ny43NSBRMTQyMC40MTI1LDE4Ny43NSAxNDIwLjQxMjUsMTk2LjkzNzUgTDE0MjIuMTYyNSwxOTYuOTM3NSBaIE0xNDI1LjcyNSwxOTYuOTM3NSBMMTQyNy40NzUsMTk2LjkzNzUgUTE0MjcuNDc1LDE5Ni45Mzc1IDE0MjcuNDc1LDE5NC4xMjUgTDE0MjUuNzI1LDE5NC4xMjUgUTE0MjUuNzI1LDE5NC4xMjUgMTQyNS43MjUsMTk2LjkzNzUgWiBNMTQyNS43MjUsMTg3Ljc1IFExNDI1LjcyNSwxODcuNzUgMTQyNS43MjUsMTkwLjU2MjUgTDE0MjcuNDc1LDE5MC41NjI1IFExNDI3LjQ3NSwxOTAuNTYyNSAxNDI3LjQ3NSwxODcuNzUgTDE0MjUuNzI1LDE4Ny43NSBaIE0xNDIxLjQ3NSwxODguNDM3NSBMMTQyNi40MTI1LDE4OC40Mzc1IEwxNDI2LjQxMjUsMTg2LjY4NzUgTDE0MjEuNDc1LDE4Ni42ODc1IEwxNDIxLjQ3NSwxODguNDM3NSBaICIgZmlsbD0iIzAwMDAwMCIvPjx0ZXh0IGZpbGw9IiMwMDAwMDAiIGZvbnQtZmFtaWx5PSJzYW5zLXNlcmlmIiBmb250LXNpemU9IjE0IiBsZW5ndGhBZGp1c3Q9InNwYWNpbmciIHRleHRMZW5ndGg9IjEwNSIgeD0iMTQ0Mi4xNSIgeT0iMTk3Ljc0MjIiPkRhdGFiYXNlTWFuYWdlcjwvdGV4dD48bGluZSBzdHlsZT0ic3Ryb2tlOiMxODE4MTg7c3Ryb2tlLXdpZHRoOjAuNTsiIHgxPSIxMzkwLjUiIHgyPSIxNTY4LjUiIHkxPSIyMDgiIHkyPSIyMDgiLz48bGluZSBzdHlsZT0ic3Ryb2tlOiMxODE4MTg7c3Ryb2tlLXdpZHRoOjAuNTsiIHgxPSIxMzkwLjUiIHgyPSIxNTY4LjUiIHkxPSIyMTYiIHkyPSIyMTYiLz48ZWxsaXBzZSBjeD0iMTQwMC41IiBjeT0iMjI4Ljk5MjIiIGZpbGw9IiM4NEJFODQiIHJ4PSIzIiByeT0iMyIgc3R5bGU9InN0cm9rZTojMDM4MDQ4O3N0cm9rZS13aWR0aDoxOyIvPjx0ZXh0IGZpbGw9IiMwMDAwMDAiIGZvbnQtZmFtaWx5PSJzYW5zLXNlcmlmIiBmb250LXNpemU9IjE0IiBsZW5ndGhBZGp1c3Q9InNwYWNpbmciIHRleHRMZW5ndGg9IjE1NCIgeD0iMTQwOS41IiB5PSIyMzMuMjM0NCI+bWFuYWdlRGF0YWJhc2UoKTogdm9pZDwvdGV4dD48L2c+PCEtLWNsYXNzIFNlYXJjaEVuZ2luZS0tPjxnIGNsYXNzPSJlbnRpdHkiIGRhdGEtZW50aXR5PSJTZWFyY2hFbmdpbmUiIGRhdGEtc291cmNlLWxpbmU9IjczIiBkYXRhLXVpZD0iZW50MDAxNCIgaWQ9ImVudGl0eV9TZWFyY2hFbmdpbmUiPjxyZWN0IGZpbGw9IiNGMUYxRjEiIGhlaWdodD0iNjIuOTg0NCIgcng9IjIuNSIgcnk9IjIuNSIgc3R5bGU9InN0cm9rZTojMTgxODE4O3N0cm9rZS13aWR0aDowLjU7IiB3aWR0aD0iMjg1IiB4PSI0MDUiIHk9IjM1Mi41Ii8+PGVsbGlwc2UgY3g9IjUwMS4yNSIgY3k9IjM2OC41IiBmaWxsPSIjQUREMUIyIiByeD0iMTEiIHJ5PSIxMSIgc3R5bGU9InN0cm9rZTojMTgxODE4O3N0cm9rZS13aWR0aDoxOyIvPjxwYXRoIGQ9Ik00OTguODc1LDM3Mi43NSBMNDk4Ljg3NSwzNzQuNSBMNTAzLjgxMjUsMzc0LjUgTDUwMy44MTI1LDM3Mi43NSBMNDk4Ljg3NSwzNzIuNzUgWiBNNDk5LjU2MjUsMzczLjQzNzUgUTQ5OS41NjI1LDM3My40Mzc1IDQ5OS41NjI1LDM2NC4yNSBMNDk3LjgxMjUsMzY0LjI1IFE0OTcuODEyNSwzNjQuMjUgNDk3LjgxMjUsMzczLjQzNzUgTDQ5OS41NjI1LDM3My40Mzc1IFogTTUwMy4xMjUsMzczLjQzNzUgTDUwNC44NzUsMzczLjQzNzUgUTUwNC44NzUsMzczLjQzNzUgNTA0Ljg3NSwzNzAuNjI1IEw1MDMuMTI1LDM3MC42MjUgUTUwMy4xMjUsMzcwLjYyNSA1MDMuMTI1LDM3My40Mzc1IFogTTUwMy4xMjUsMzY0LjI1IFE1MDMuMTI1LDM2NC4yNSA1MDMuMTI1LDM2Ny4wNjI1IEw1MDQuODc1LDM2Ny4wNjI1IFE1MDQuODc1LDM2Ny4wNjI1IDUwNC44NzUsMzY0LjI1IEw1MDMuMTI1LDM2NC4yNSBaIE00OTguODc1LDM2NC45Mzc1IEw1MDMuODEyNSwzNjQuOTM3NSBMNTAzLjgxMjUsMzYzLjE4NzUgTDQ5OC44NzUsMzYzLjE4NzUgTDQ5OC44NzUsMzY0LjkzNzUgWiAiIGZpbGw9IiMwMDAwMDAiLz48dGV4dCBmaWxsPSIjMDAwMDAwIiBmb250LWZhbWlseT0ic2Fucy1zZXJpZiIgZm9udC1zaXplPSIxNCIgbGVuZ3RoQWRqdXN0PSJzcGFjaW5nIiB0ZXh0TGVuZ3RoPSI4NCIgeD0iNTIxLjc1IiB5PSIzNzQuMjQyMiI+U2VhcmNoRW5naW5lPC90ZXh0PjxsaW5lIHN0eWxlPSJzdHJva2U6IzE4MTgxODtzdHJva2Utd2lkdGg6MC41OyIgeDE9IjQwNiIgeDI9IjY4OSIgeTE9IjM4NC41IiB5Mj0iMzg0LjUiLz48bGluZSBzdHlsZT0ic3Ryb2tlOiMxODE4MTg7c3Ryb2tlLXdpZHRoOjAuNTsiIHgxPSI0MDYiIHgyPSI2ODkiIHkxPSIzOTIuNSIgeTI9IjM5Mi41Ii8+PGVsbGlwc2UgY3g9IjQxNiIgY3k9IjQwNS40OTIyIiBmaWxsPSIjODRCRTg0IiByeD0iMyIgcnk9IjMiIHN0eWxlPSJzdHJva2U6IzAzODA0ODtzdHJva2Utd2lkdGg6MTsiLz48dGV4dCBmaWxsPSIjMDAwMDAwIiBmb250LWZhbWlseT0ic2Fucy1zZXJpZiIgZm9udC1zaXplPSIxNCIgbGVuZ3RoQWRqdXN0PSJzcGFjaW5nIiB0ZXh0TGVuZ3RoPSIyNTkiIHg9IjQyNSIgeT0iNDA5LjczNDQiPnBlcmZvcm1BZHZhbmNlZFNlYXJjaCgpOiBMaXN0Jmx0O1JlY2lwZSZndDs8L3RleHQ+PC9nPjwhLS1jbGFzcyBSZXBvcnRHZW5lcmF0b3ItLT48ZyBjbGFzcz0iZW50aXR5IiBkYXRhLWVudGl0eT0iUmVwb3J0R2VuZXJhdG9yIiBkYXRhLXNvdXJjZS1saW5lPSI3NyIgZGF0YS11aWQ9ImVudDAwMTUiIGlkPSJlbnRpdHlfUmVwb3J0R2VuZXJhdG9yIj48cmVjdCBmaWxsPSIjRjFGMUYxIiBoZWlnaHQ9IjYyLjk4NDQiIHJ4PSIyLjUiIHJ5PSIyLjUiIHN0eWxlPSJzdHJva2U6IzE4MTgxODtzdHJva2Utd2lkdGg6MC41OyIgd2lkdGg9IjE5NCIgeD0iMTYwNC41IiB5PSIxNzYiLz48ZWxsaXBzZSBjeD0iMTY0NS4xNSIgY3k9IjE5MiIgZmlsbD0iI0FERDFCMiIgcng9IjExIiByeT0iMTEiIHN0eWxlPSJzdHJva2U6IzE4MTgxODtzdHJva2Utd2lkdGg6MTsiLz48cGF0aCBkPSJNMTY0Mi43NzUsMTk2LjI1IEwxNjQyLjc3NSwxOTggTDE2NDcuNzEyNSwxOTggTDE2NDcuNzEyNSwxOTYuMjUgTDE2NDIuNzc1LDE5Ni4yNSBaIE0xNjQzLjQ2MjUsMTk2LjkzNzUgUTE2NDMuNDYyNSwxOTYuOTM3NSAxNjQzLjQ2MjUsMTg3Ljc1IEwxNjQxLjcxMjUsMTg3Ljc1IFExNjQxLjcxMjUsMTg3Ljc1IDE2NDEuNzEyNSwxOTYuOTM3NSBMMTY0My40NjI1LDE5Ni45Mzc1IFogTTE2NDcuMDI1LDE5Ni45Mzc1IEwxNjQ4Ljc3NSwxOTYuOTM3NSBRMTY0OC43NzUsMTk2LjkzNzUgMTY0OC43NzUsMTk0LjEyNSBMMTY0Ny4wMjUsMTk0LjEyNSBRMTY0Ny4wMjUsMTk0LjEyNSAxNjQ3LjAyNSwxOTYuOTM3NSBaIE0xNjQ3LjAyNSwxODcuNzUgUTE2NDcuMDI1LDE4Ny43NSAxNjQ3LjAyNSwxOTAuNTYyNSBMMTY0OC43NzUsMTkwLjU2MjUgUTE2NDguNzc1LDE5MC41NjI1IDE2NDguNzc1LDE4Ny43NSBMMTY0Ny4wMjUsMTg3Ljc1IFogTTE2NDIuNzc1LDE4OC40Mzc1IEwxNjQ3LjcxMjUsMTg4LjQzNzUgTDE2NDcuNzEyNSwxODYuNjg3NSBMMTY0Mi43NzUsMTg2LjY4NzUgTDE2NDIuNzc1LDE4OC40Mzc1IFogIiBmaWxsPSIjMDAwMDAwIi8+PHRleHQgZmlsbD0iIzAwMDAwMCIgZm9udC1mYW1pbHk9InNhbnMtc2VyaWYiIGZvbnQtc2l6ZT0iMTQiIGxlbmd0aEFkanVzdD0ic3BhY2luZyIgdGV4dExlbmd0aD0iMTA1IiB4PSIxNjY0Ljg1IiB5PSIxOTcuNzQyMiI+UmVwb3J0R2VuZXJhdG9yPC90ZXh0PjxsaW5lIHN0eWxlPSJzdHJva2U6IzE4MTgxODtzdHJva2Utd2lkdGg6MC41OyIgeDE9IjE2MDUuNSIgeDI9IjE3OTcuNSIgeTE9IjIwOCIgeTI9IjIwOCIvPjxsaW5lIHN0eWxlPSJzdHJva2U6IzE4MTgxODtzdHJva2Utd2lkdGg6MC41OyIgeDE9IjE2MDUuNSIgeDI9IjE3OTcuNSIgeTE9IjIxNiIgeTI9IjIxNiIvPjxlbGxpcHNlIGN4PSIxNjE1LjUiIGN5PSIyMjguOTkyMiIgZmlsbD0iIzg0QkU4NCIgcng9IjMiIHJ5PSIzIiBzdHlsZT0ic3Ryb2tlOiMwMzgwNDg7c3Ryb2tlLXdpZHRoOjE7Ii8+PHRleHQgZmlsbD0iIzAwMDAwMCIgZm9udC1mYW1pbHk9InNhbnMtc2VyaWYiIGZvbnQtc2l6ZT0iMTQiIGxlbmd0aEFkanVzdD0ic3BhY2luZyIgdGV4dExlbmd0aD0iMTY4IiB4PSIxNjI0LjUiIHk9IjIzMy4yMzQ0Ij5nZW5lcmF0ZVJlcG9ydCgpOiBSZXBvcnQ8L3RleHQ+PC9nPjwhLS1jbGFzcyBRdWFsaXR5Q29udHJvbFRlYW0tLT48ZyBjbGFzcz0iZW50aXR5IiBkYXRhLWVudGl0eT0iUXVhbGl0eUNvbnRyb2xUZWFtIiBkYXRhLXNvdXJjZS1saW5lPSI4MSIgZGF0YS11aWQ9ImVudDAwMTYiIGlkPSJlbnRpdHlfUXVhbGl0eUNvbnRyb2xUZWFtIj48cmVjdCBmaWxsPSIjRjFGMUYxIiBoZWlnaHQ9IjYyLjk4NDQiIHJ4PSIyLjUiIHJ5PSIyLjUiIHN0eWxlPSJzdHJva2U6IzE4MTgxODtzdHJva2Utd2lkdGg6MC41OyIgd2lkdGg9IjE4MCIgeD0iMTgzMy41IiB5PSIxNzYiLz48ZWxsaXBzZSBjeD0iMTg1OC40IiBjeT0iMTkyIiBmaWxsPSIjQUREMUIyIiByeD0iMTEiIHJ5PSIxMSIgc3R5bGU9InN0cm9rZTojMTgxODE4O3N0cm9rZS13aWR0aDoxOyIvPjxwYXRoIGQ9Ik0xODU2LjAyNSwxOTYuMjUgTDE4NTYuMDI1LDE5OCBMMTg2MC45NjI1LDE5OCBMMTg2MC45NjI1LDE5Ni4yNSBMMTg1Ni4wMjUsMTk2LjI1IFogTTE4NTYuNzEyNSwxOTYuOTM3NSBRMTg1Ni43MTI1LDE5Ni45Mzc1IDE4NTYuNzEyNSwxODcuNzUgTDE4NTQuOTYyNSwxODcuNzUgUTE4NTQuOTYyNSwxODcuNzUgMTg1NC45NjI1LDE5Ni45Mzc1IEwxODU2LjcxMjUsMTk2LjkzNzUgWiBNMTg2MC4yNzUsMTk2LjkzNzUgTDE4NjIuMDI1LDE5Ni45Mzc1IFExODYyLjAyNSwxOTYuOTM3NSAxODYyLjAyNSwxOTQuMTI1IEwxODYwLjI3NSwxOTQuMTI1IFExODYwLjI3NSwxOTQuMTI1IDE4NjAuMjc1LDE5Ni45Mzc1IFogTTE4NjAuMjc1LDE4Ny43NSBRMTg2MC4yNzUsMTg3Ljc1IDE4NjAuMjc1LDE5MC41NjI1IEwxODYyLjAyNSwxOTAuNTYyNSBRMTg2Mi4wMjUsMTkwLjU2MjUgMTg2Mi4wMjUsMTg3Ljc1IEwxODYwLjI3NSwxODcuNzUgWiBNMTg1Ni4wMjUsMTg4LjQzNzUgTDE4NjAuOTYyNSwxODguNDM3NSBMMTg2MC45NjI1LDE4Ni42ODc1IEwxODU2LjAyNSwxODYuNjg3NSBMMTg1Ni4wMjUsMTg4LjQzNzUgWiAiIGZpbGw9IiMwMDAwMDAiLz48dGV4dCBmaWxsPSIjMDAwMDAwIiBmb250LWZhbWlseT0ic2Fucy1zZXJpZiIgZm9udC1zaXplPSIxNCIgbGVuZ3RoQWRqdXN0PSJzcGFjaW5nIiB0ZXh0TGVuZ3RoPSIxMjYiIHg9IjE4NzQuNiIgeT0iMTk3Ljc0MjIiPlF1YWxpdHlDb250cm9sVGVhbTwvdGV4dD48bGluZSBzdHlsZT0ic3Ryb2tlOiMxODE4MTg7c3Ryb2tlLXdpZHRoOjAuNTsiIHgxPSIxODM0LjUiIHgyPSIyMDEyLjUiIHkxPSIyMDgiIHkyPSIyMDgiLz48bGluZSBzdHlsZT0ic3Ryb2tlOiMxODE4MTg7c3Ryb2tlLXdpZHRoOjAuNTsiIHgxPSIxODM0LjUiIHgyPSIyMDEyLjUiIHkxPSIyMTYiIHkyPSIyMTYiLz48ZWxsaXBzZSBjeD0iMTg0NC41IiBjeT0iMjI4Ljk5MjIiIGZpbGw9IiM4NEJFODQiIHJ4PSIzIiByeT0iMyIgc3R5bGU9InN0cm9rZTojMDM4MDQ4O3N0cm9rZS13aWR0aDoxOyIvPjx0ZXh0IGZpbGw9IiMwMDAwMDAiIGZvbnQtZmFtaWx5PSJzYW5zLXNlcmlmIiBmb250LXNpemU9IjE0IiBsZW5ndGhBZGp1c3Q9InNwYWNpbmciIHRleHRMZW5ndGg9IjE1NCIgeD0iMTg1My41IiB5PSIyMzMuMjM0NCI+cmV2aWV3RmVlZGJhY2soKTogdm9pZDwvdGV4dD48L2c+PCEtLWNsYXNzIFJlY2lwaWVudC0tPjxnIGNsYXNzPSJlbnRpdHkiIGRhdGEtZW50aXR5PSJSZWNpcGllbnQiIGRhdGEtc291cmNlLWxpbmU9Ijg1IiBkYXRhLXVpZD0iZW50MDAxNyIgaWQ9ImVudGl0eV9SZWNpcGllbnQiPjxyZWN0IGZpbGw9IiNGMUYxRjEiIGhlaWdodD0iNjIuOTg0NCIgcng9IjIuNSIgcnk9IjIuNSIgc3R5bGU9InN0cm9rZTojMTgxODE4O3N0cm9rZS13aWR0aDowLjU7IiB3aWR0aD0iMTczIiB4PSIyMDQ5IiB5PSIxNzYiLz48ZWxsaXBzZSBjeD0iMjA5OS43NSIgY3k9IjE5MiIgZmlsbD0iI0FERDFCMiIgcng9IjExIiByeT0iMTEiIHN0eWxlPSJzdHJva2U6IzE4MTgxODtzdHJva2Utd2lkdGg6MTsiLz48cGF0aCBkPSJNMjA5Ny4zNzUsMTk2LjI1IEwyMDk3LjM3NSwxOTggTDIxMDIuMzEyNSwxOTggTDIxMDIuMzEyNSwxOTYuMjUgTDIwOTcuMzc1LDE5Ni4yNSBaIE0yMDk4LjA2MjUsMTk2LjkzNzUgUTIwOTguMDYyNSwxOTYuOTM3NSAyMDk4LjA2MjUsMTg3Ljc1IEwyMDk2LjMxMjUsMTg3Ljc1IFEyMDk2LjMxMjUsMTg3Ljc1IDIwOTYuMzEyNSwxOTYuOTM3NSBMMjA5OC4wNjI1LDE5Ni45Mzc1IFogTTIxMDEuNjI1LDE5Ni45Mzc1IEwyMTAzLjM3NSwxOTYuOTM3NSBRMjEwMy4zNzUsMTk2LjkzNzUgMjEwMy4zNzUsMTk0LjEyNSBMMjEwMS42MjUsMTk0LjEyNSBRMjEwMS42MjUsMTk0LjEyNSAyMTAxLjYyNSwxOTYuOTM3NSBaIE0yMTAxLjYyNSwxODcuNzUgUTIxMDEuNjI1LDE4Ny43NSAyMTAxLjYyNSwxOTAuNTYyNSBMMjEwMy4zNzUsMTkwLjU2MjUgUTIxMDMuMzc1LDE5MC41NjI1IDIxMDMuMzc1LDE4Ny43NSBMMjEwMS42MjUsMTg3Ljc1IFogTTIwOTcuMzc1LDE4OC40Mzc1IEwyMTAyLjMxMjUsMTg4LjQzNzUgTDIxMDIuMzEyNSwxODYuNjg3NSBMMjA5Ny4zNzUsMTg2LjY4NzUgTDIwOTcuMzc1LDE4OC40Mzc1IFogIiBmaWxsPSIjMDAwMDAwIi8+PHRleHQgZmlsbD0iIzAwMDAwMCIgZm9udC1mYW1pbHk9InNhbnMtc2VyaWYiIGZvbnQtc2l6ZT0iMTQiIGxlbmd0aEFkanVzdD0ic3BhY2luZyIgdGV4dExlbmd0aD0iNjMiIHg9IjIxMjAuMjUiIHk9IjE5Ny43NDIyIj5SZWNpcGllbnQ8L3RleHQ+PGxpbmUgc3R5bGU9InN0cm9rZTojMTgxODE4O3N0cm9rZS13aWR0aDowLjU7IiB4MT0iMjA1MCIgeDI9IjIyMjEiIHkxPSIyMDgiIHkyPSIyMDgiLz48bGluZSBzdHlsZT0ic3Ryb2tlOiMxODE4MTg7c3Ryb2tlLXdpZHRoOjAuNTsiIHgxPSIyMDUwIiB4Mj0iMjIyMSIgeTE9IjIxNiIgeTI9IjIxNiIvPjxlbGxpcHNlIGN4PSIyMDYwIiBjeT0iMjI4Ljk5MjIiIGZpbGw9IiM4NEJFODQiIHJ4PSIzIiByeT0iMyIgc3R5bGU9InN0cm9rZTojMDM4MDQ4O3N0cm9rZS13aWR0aDoxOyIvPjx0ZXh0IGZpbGw9IiMwMDAwMDAiIGZvbnQtZmFtaWx5PSJzYW5zLXNlcmlmIiBmb250LXNpemU9IjE0IiBsZW5ndGhBZGp1c3Q9InNwYWNpbmciIHRleHRMZW5ndGg9IjE0NyIgeD0iMjA2OSIgeT0iMjMzLjIzNDQiPnJlY2VpdmVSZWNpcGUoKTogdm9pZDwvdGV4dD48L2c+PCEtLWNsYXNzIFJlY2lwZUNvbnRyaWJ1dG9yLS0+PGcgY2xhc3M9ImVudGl0eSIgZGF0YS1lbnRpdHk9IlJlY2lwZUNvbnRyaWJ1dG9yIiBkYXRhLXNvdXJjZS1saW5lPSI4OSIgZGF0YS11aWQ9ImVudDAwMTgiIGlkPSJlbnRpdHlfUmVjaXBlQ29udHJpYnV0b3IiPjxyZWN0IGZpbGw9IiNGMUYxRjEiIGhlaWdodD0iNjIuOTg0NCIgcng9IjIuNSIgcnk9IjIuNSIgc3R5bGU9InN0cm9rZTojMTgxODE4O3N0cm9rZS13aWR0aDowLjU7IiB3aWR0aD0iMTUyIiB4PSIyMjU3LjUiIHk9IjE3NiIvPjxlbGxpcHNlIGN4PSIyMjcyLjk1IiBjeT0iMTkyIiBmaWxsPSIjQUREMUIyIiByeD0iMTEiIHJ5PSIxMSIgc3R5bGU9InN0cm9rZTojMTgxODE4O3N0cm9rZS13aWR0aDoxOyIvPjxwYXRoIGQ9Ik0yMjcwLjU3NSwxOTYuMjUgTDIyNzAuNTc1LDE5OCBMMjI3NS41MTI1LDE5OCBMMjI3NS41MTI1LDE5Ni4yNSBMMjI3MC41NzUsMTk2LjI1IFogTTIyNzEuMjYyNSwxOTYuOTM3NSBRMjI3MS4yNjI1LDE5Ni45Mzc1IDIyNzEuMjYyNSwxODcuNzUgTDIyNjkuNTEyNSwxODcuNzUgUTIyNjkuNTEyNSwxODcuNzUgMjI2OS41MTI1LDE5Ni45Mzc1IEwyMjcxLjI2MjUsMTk2LjkzNzUgWiBNMjI3NC44MjUsMTk2LjkzNzUgTDIyNzYuNTc1LDE5Ni45Mzc1IFEyMjc2LjU3NSwxOTYuOTM3NSAyMjc2LjU3NSwxOTQuMTI1IEwyMjc0LjgyNSwxOTQuMTI1IFEyMjc0LjgyNSwxOTQuMTI1IDIyNzQuODI1LDE5Ni45Mzc1IFogTTIyNzQuODI1LDE4Ny43NSBRMjI3NC44MjUsMTg3Ljc1IDIyNzQuODI1LDE5MC41NjI1IEwyMjc2LjU3NSwxOTAuNTYyNSBRMjI3Ni41NzUsMTkwLjU2MjUgMjI3Ni41NzUsMTg3Ljc1IEwyMjc0LjgyNSwxODcuNzUgWiBNMjI3MC41NzUsMTg4LjQzNzUgTDIyNzUuNTEyNSwxODguNDM3NSBMMjI3NS41MTI1LDE4Ni42ODc1IEwyMjcwLjU3NSwxODYuNjg3NSBMMjI3MC41NzUsMTg4LjQzNzUgWiAiIGZpbGw9IiMwMDAwMDAiLz48dGV4dCBmaWxsPSIjMDAwMDAwIiBmb250LWZhbWlseT0ic2Fucy1zZXJpZiIgZm9udC1zaXplPSIxNCIgbGVuZ3RoQWRqdXN0PSJzcGFjaW5nIiB0ZXh0TGVuZ3RoPSIxMTkiIHg9IjIyODcuMDUiIHk9IjE5Ny43NDIyIj5SZWNpcGVDb250cmlidXRvcjwvdGV4dD48bGluZSBzdHlsZT0ic3Ryb2tlOiMxODE4MTg7c3Ryb2tlLXdpZHRoOjAuNTsiIHgxPSIyMjU4LjUiIHgyPSIyNDA4LjUiIHkxPSIyMDgiIHkyPSIyMDgiLz48bGluZSBzdHlsZT0ic3Ryb2tlOiMxODE4MTg7c3Ryb2tlLXdpZHRoOjAuNTsiIHgxPSIyMjU4LjUiIHgyPSIyNDA4LjUiIHkxPSIyMTYiIHkyPSIyMTYiLz48ZWxsaXBzZSBjeD0iMjI2OC41IiBjeT0iMjI4Ljk5MjIiIGZpbGw9IiM4NEJFODQiIHJ4PSIzIiByeT0iMyIgc3R5bGU9InN0cm9rZTojMDM4MDQ4O3N0cm9rZS13aWR0aDoxOyIvPjx0ZXh0IGZpbGw9IiMwMDAwMDAiIGZvbnQtZmFtaWx5PSJzYW5zLXNlcmlmIiBmb250LXNpemU9IjE0IiBsZW5ndGhBZGp1c3Q9InNwYWNpbmciIHRleHRMZW5ndGg9IjEyNiIgeD0iMjI3Ny41IiB5PSIyMzMuMjM0NCI+Y29udHJpYnV0ZSgpOiB2b2lkPC90ZXh0PjwvZz48IS0tcmV2ZXJzZSBsaW5rIFVzZXIgdG8gUmVjaXBlQ3JlYXRvci0tPjxnIGNsYXNzPSJsaW5rIiBkYXRhLWVudGl0eS0xPSJVc2VyIiBkYXRhLWVudGl0eS0yPSJSZWNpcGVDcmVhdG9yIiBkYXRhLXNvdXJjZS1saW5lPSI5NCIgZGF0YS11aWQ9ImxuazE5IiBpZD0ibGlua19Vc2VyX1JlY2lwZUNyZWF0b3IiPjxwYXRoIGNvZGVMaW5lPSI5NCIgZD0iTTExNzAuMTgyLDUxLjEzOTIgQzk2OS4yMjIsNjEuMDc5MiA0MDcuMiw5Mi44MiAyMjUuNSwxNDYgQzIxOS43NiwxNDcuNjggMjEzLjk2LDE0OS42NCAyMDguMTgsMTUxLjgyIiBmaWxsPSJub25lIiBpZD0iVXNlci1iYWNrdG8tUmVjaXBlQ3JlYXRvciIgc3R5bGU9InN0cm9rZTojMTgxODE4O3N0cm9rZS13aWR0aDoxOyIvPjxwb2x5Z29uIGZpbGw9Im5vbmUiIHBvaW50cz0iMTE4OC4xNiw1MC4yNSwxMTY5Ljg4NTYsNDUuMTQ2NiwxMTcwLjQ3ODQsNTcuMTMxOSwxMTg4LjE2LDUwLjI1IiBzdHlsZT0ic3Ryb2tlOiMxODE4MTg7c3Ryb2tlLXdpZHRoOjE7Ii8+PC9nPjwhLS1yZXZlcnNlIGxpbmsgVXNlciB0byBSZWNpcGVPd25lci0tPjxnIGNsYXNzPSJsaW5rIiBkYXRhLWVudGl0eS0xPSJVc2VyIiBkYXRhLWVudGl0eS0yPSJSZWNpcGVPd25lciIgZGF0YS1zb3VyY2UtbGluZT0iOTUiIGRhdGEtdWlkPSJsbmsyMCIgaWQ9ImxpbmtfVXNlcl9SZWNpcGVPd25lciI+PHBhdGggY29kZUxpbmU9Ijk1IiBkPSJNMTE3MC4yODIzLDUyLjc1MzQgQzk5Ny4zMjIzLDY0LjYzMzQgNTY4LjE3LDk3Ljk0IDQyNy41LDE0NiBDNDA3LDE1MyAzODYuMTYsMTY0LjU4IDM2OC43NywxNzUuNzQiIGZpbGw9Im5vbmUiIGlkPSJVc2VyLWJhY2t0by1SZWNpcGVPd25lciIgc3R5bGU9InN0cm9rZTojMTgxODE4O3N0cm9rZS13aWR0aDoxOyIvPjxwb2x5Z29uIGZpbGw9Im5vbmUiIHBvaW50cz0iMTE4OC4yNCw1MS41MiwxMTY5Ljg3MTIsNDYuNzY3NiwxMTcwLjY5MzUsNTguNzM5MywxMTg4LjI0LDUxLjUyIiBzdHlsZT0ic3Ryb2tlOiMxODE4MTg7c3Ryb2tlLXdpZHRoOjE7Ii8+PC9nPjwhLS1yZXZlcnNlIGxpbmsgVXNlciB0byBTeXN0ZW1Pd25lci0tPjxnIGNsYXNzPSJsaW5rIiBkYXRhLWVudGl0eS0xPSJVc2VyIiBkYXRhLWVudGl0eS0yPSJTeXN0ZW1Pd25lciIgZGF0YS1zb3VyY2UtbGluZT0iOTYiIGRhdGEtdWlkPSJsbmsyMSIgaWQ9ImxpbmtfVXNlcl9TeXN0ZW1Pd25lciI+PHBhdGggY29kZUxpbmU9Ijk2IiBkPSJNMTE3MC4yMDc0LDUzLjAzNTkgQzEwNTcuNjE3NCw2Mi4wNDU5IDg0Ny4xMyw4NS4yNiA2NjMuNSwxNDYgQzY0MC42NiwxNTMuNTYgNjE2LjgsMTY1LjAyIDU5Ni41NywxNzUuOTUiIGZpbGw9Im5vbmUiIGlkPSJVc2VyLWJhY2t0by1TeXN0ZW1Pd25lciIgc3R5bGU9InN0cm9rZTojMTgxODE4O3N0cm9rZS13aWR0aDoxOyIvPjxwb2x5Z29uIGZpbGw9Im5vbmUiIHBvaW50cz0iMTE4OC4xNSw1MS42LDExNjkuNzI4Nyw0Ny4wNTUsMTE3MC42ODYsNTkuMDE2NywxMTg4LjE1LDUxLjYiIHN0eWxlPSJzdHJva2U6IzE4MTgxODtzdHJva2Utd2lkdGg6MTsiLz48L2c+PCEtLXJldmVyc2UgbGluayBVc2VyIHRvIEVuZFVzZXItLT48ZyBjbGFzcz0ibGluayIgZGF0YS1lbnRpdHktMT0iVXNlciIgZGF0YS1lbnRpdHktMj0iRW5kVXNlciIgZGF0YS1zb3VyY2UtbGluZT0iOTciIGRhdGEtdWlkPSJsbmsyMiIgaWQ9ImxpbmtfVXNlcl9FbmRVc2VyIj48cGF0aCBjb2RlTGluZT0iOTciIGQ9Ik0xMTcwLjg1NzMsNjkuNTkzNSBDMTEwMy42NDczLDg3LjY2MzUgMTAxNi41OCwxMTIuODkgOTI4LjUsMTQ2IEM5MTYuNTEsMTUwLjUxIDkwNC4wNywxNTUuNTkgODkxLjg0LDE2MC44NSIgZmlsbD0ibm9uZSIgaWQ9IlVzZXItYmFja3RvLUVuZFVzZXIiIHN0eWxlPSJzdHJva2U6IzE4MTgxODtzdHJva2Utd2lkdGg6MTsiLz48cG9seWdvbiBmaWxsPSJub25lIiBwb2ludHM9IjExODguMjQsNjQuOTIsMTE2OS4yOTk1LDYzLjc5OTMsMTE3Mi40MTUxLDc1LjM4NzcsMTE4OC4yNCw2NC45MiIgc3R5bGU9InN0cm9rZTojMTgxODE4O3N0cm9rZS13aWR0aDoxOyIvPjwvZz48IS0tcmV2ZXJzZSBsaW5rIFVzZXIgdG8gU3lzdGVtQWRtaW5pc3RyYXRvci0tPjxnIGNsYXNzPSJsaW5rIiBkYXRhLWVudGl0eS0xPSJVc2VyIiBkYXRhLWVudGl0eS0yPSJTeXN0ZW1BZG1pbmlzdHJhdG9yIiBkYXRhLXNvdXJjZS1saW5lPSI5OCIgZGF0YS11aWQ9ImxuazIzIiBpZD0ibGlua19Vc2VyX1N5c3RlbUFkbWluaXN0cmF0b3IiPjxwYXRoIGNvZGVMaW5lPSI5OCIgZD0iTTExODkuOTkyNCw5NS41MDM3IEMxMTUxLjI2MjQsMTIzLjMzMzcgMTExNCwxNTAuMSAxMDc3Ljk2LDE3NS45OSIgZmlsbD0ibm9uZSIgaWQ9IlVzZXItYmFja3RvLVN5c3RlbUFkbWluaXN0cmF0b3IiIHN0eWxlPSJzdHJva2U6IzE4MTgxODtzdHJva2Utd2lkdGg6MTsiLz48cG9seWdvbiBmaWxsPSJub25lIiBwb2ludHM9IjEyMDQuNjEsODUsMTE4Ni40OTEyLDkwLjYzMTEsMTE5My40OTM3LDEwMC4zNzYyLDEyMDQuNjEsODUiIHN0eWxlPSJzdHJva2U6IzE4MTgxODtzdHJva2Utd2lkdGg6MTsiLz48L2c+PCEtLXJldmVyc2UgbGluayBVc2VyIHRvIERhdGFiYXNlTWFuYWdlci0tPjxnIGNsYXNzPSJsaW5rIiBkYXRhLWVudGl0eS0xPSJVc2VyIiBkYXRhLWVudGl0eS0yPSJEYXRhYmFzZU1hbmFnZXIiIGRhdGEtc291cmNlLWxpbmU9Ijk5IiBkYXRhLXVpZD0ibG5rMjQiIGlkPSJsaW5rX1VzZXJfRGF0YWJhc2VNYW5hZ2VyIj48cGF0aCBjb2RlTGluZT0iOTkiIGQ9Ik0xMzI1LjAwNzYsOTUuNTAzNyBDMTM2My43Mzc2LDEyMy4zMzM3IDE0MDEsMTUwLjEgMTQzNy4wNCwxNzUuOTkiIGZpbGw9Im5vbmUiIGlkPSJVc2VyLWJhY2t0by1EYXRhYmFzZU1hbmFnZXIiIHN0eWxlPSJzdHJva2U6IzE4MTgxODtzdHJva2Utd2lkdGg6MTsiLz48cG9seWdvbiBmaWxsPSJub25lIiBwb2ludHM9IjEzMTAuMzksODUsMTMyMS41MDYzLDEwMC4zNzYyLDEzMjguNTA4OCw5MC42MzExLDEzMTAuMzksODUiIHN0eWxlPSJzdHJva2U6IzE4MTgxODtzdHJva2Utd2lkdGg6MTsiLz48L2c+PCEtLXJldmVyc2UgbGluayBVc2VyIHRvIFJlcG9ydEdlbmVyYXRvci0tPjxnIGNsYXNzPSJsaW5rIiBkYXRhLWVudGl0eS0xPSJVc2VyIiBkYXRhLWVudGl0eS0yPSJSZXBvcnRHZW5lcmF0b3IiIGRhdGEtc291cmNlLWxpbmU9IjEwMCIgZGF0YS11aWQ9ImxuazI1IiBpZD0ibGlua19Vc2VyX1JlcG9ydEdlbmVyYXRvciI+PHBhdGggY29kZUxpbmU9IjEwMCIgZD0iTTEzNDQuMjQ4Nyw2Ny45NzA4IEMxNDExLjk3ODcsODUuMTMwOCAxNDk5Ljk0LDExMC4wNCAxNTg3LjUsMTQ2IEMxNjA4LjIzLDE1NC41MSAxNjMwLjE2LDE2NS42MSAxNjQ5LjE4LDE3NS45NiIgZmlsbD0ibm9uZSIgaWQ9IlVzZXItYmFja3RvLVJlcG9ydEdlbmVyYXRvciIgc3R5bGU9InN0cm9rZTojMTgxODE4O3N0cm9rZS13aWR0aDoxOyIvPjxwb2x5Z29uIGZpbGw9Im5vbmUiIHBvaW50cz0iMTMyNi44LDYzLjU1LDEzNDIuNzc1MSw3My43ODcsMTM0NS43MjIzLDYyLjE1NDYsMTMyNi44LDYzLjU1IiBzdHlsZT0ic3Ryb2tlOiMxODE4MTg7c3Ryb2tlLXdpZHRoOjE7Ii8+PC9nPjwhLS1yZXZlcnNlIGxpbmsgVXNlciB0byBRdWFsaXR5Q29udHJvbFRlYW0tLT48ZyBjbGFzcz0ibGluayIgZGF0YS1lbnRpdHktMT0iVXNlciIgZGF0YS1lbnRpdHktMj0iUXVhbGl0eUNvbnRyb2xUZWFtIiBkYXRhLXNvdXJjZS1saW5lPSIxMDEiIGRhdGEtdWlkPSJsbmsyNiIgaWQ9ImxpbmtfVXNlcl9RdWFsaXR5Q29udHJvbFRlYW0iPjxwYXRoIGNvZGVMaW5lPSIxMDEiIGQ9Ik0xMzQ0LjQ2OCw1My4xNzMyIEMxNDUxLjk4OCw2Mi4xMjMyIDE2NDYuNzYsODUuMDEgMTgxNi41LDE0NiBDMTgzNy40OSwxNTMuNTQgMTg1OS4xNywxNjUuMDEgMTg3Ny40OCwxNzUuOTQiIGZpbGw9Im5vbmUiIGlkPSJVc2VyLWJhY2t0by1RdWFsaXR5Q29udHJvbFRlYW0iIHN0eWxlPSJzdHJva2U6IzE4MTgxODtzdHJva2Utd2lkdGg6MTsiLz48cG9seWdvbiBmaWxsPSJub25lIiBwb2ludHM9IjEzMjYuNTMsNTEuNjgsMTM0My45NzAyLDU5LjE1MjUsMTM0NC45NjU3LDQ3LjE5MzgsMTMyNi41Myw1MS42OCIgc3R5bGU9InN0cm9rZTojMTgxODE4O3N0cm9rZS13aWR0aDoxOyIvPjwvZz48IS0tcmV2ZXJzZSBsaW5rIFVzZXIgdG8gQUlSZWNpcGVBc3Npc3RhbnQtLT48ZyBjbGFzcz0ibGluayIgZGF0YS1lbnRpdHktMT0iVXNlciIgZGF0YS1lbnRpdHktMj0iQUlSZWNpcGVBc3Npc3RhbnQiIGRhdGEtc291cmNlLWxpbmU9IjEwMiIgZGF0YS11aWQ9ImxuazI3IiBpZD0ibGlua19Vc2VyX0FJUmVjaXBlQXNzaXN0YW50Ij48cGF0aCBjb2RlTGluZT0iMTAyIiBkPSJNMTI1Ny41LDEwMy4yIEMxMjU3LjUsMTMwLjk0IDEyNTcuNSwxNDkuOTkgMTI1Ny41LDE3NS44MSIgZmlsbD0ibm9uZSIgaWQ9IlVzZXItYmFja3RvLUFJUmVjaXBlQXNzaXN0YW50IiBzdHlsZT0ic3Ryb2tlOiMxODE4MTg7c3Ryb2tlLXdpZHRoOjE7Ii8+PHBvbHlnb24gZmlsbD0ibm9uZSIgcG9pbnRzPSIxMjU3LjUsODUuMiwxMjUxLjUsMTAzLjIsMTI2My41LDEwMy4yLDEyNTcuNSw4NS4yIiBzdHlsZT0ic3Ryb2tlOiMxODE4MTg7c3Ryb2tlLXdpZHRoOjE7Ii8+PC9nPjwhLS1yZXZlcnNlIGxpbmsgVXNlciB0byBSZWNpcGVDb250cmlidXRvci0tPjxnIGNsYXNzPSJsaW5rIiBkYXRhLWVudGl0eS0xPSJVc2VyIiBkYXRhLWVudGl0eS0yPSJSZWNpcGVDb250cmlidXRvciIgZGF0YS1zb3VyY2UtbGluZT0iMTAzIiBkYXRhLXVpZD0ibG5rMjgiIGlkPSJsaW5rX1VzZXJfUmVjaXBlQ29udHJpYnV0b3IiPjxwYXRoIGNvZGVMaW5lPSIxMDMiIGQ9Ik0xMzQ0LjUxMzcsNTAuNDc2NSBDMTUzOS4wMDM3LDU4Ljc2NjUgMjA3MC4zNyw4Ni4yMiAyMjM5LjUsMTQ2IEMyMjU5LjA4LDE1Mi45MiAyMjc4LjcxLDE2NC42MiAyMjk0Ljk0LDE3NS45MSIgZmlsbD0ibm9uZSIgaWQ9IlVzZXItYmFja3RvLVJlY2lwZUNvbnRyaWJ1dG9yIiBzdHlsZT0ic3Ryb2tlOiMxODE4MTg7c3Ryb2tlLXdpZHRoOjE7Ii8+PHBvbHlnb24gZmlsbD0ibm9uZSIgcG9pbnRzPSIxMzI2LjUzLDQ5LjcxLDEzNDQuMjU4Miw1Ni40NzExLDEzNDQuNzY5Miw0NC40ODIsMTMyNi41Myw0OS43MSIgc3R5bGU9InN0cm9rZTojMTgxODE4O3N0cm9rZS13aWR0aDoxOyIvPjwvZz48IS0tcmV2ZXJzZSBsaW5rIFVzZXIgdG8gUmVjaXBpZW50LS0+PGcgY2xhc3M9ImxpbmsiIGRhdGEtZW50aXR5LTE9IlVzZXIiIGRhdGEtZW50aXR5LTI9IlJlY2lwaWVudCIgZGF0YS1zb3VyY2UtbGluZT0iMTA0IiBkYXRhLXVpZD0ibG5rMjkiIGlkPSJsaW5rX1VzZXJfUmVjaXBpZW50Ij48cGF0aCBjb2RlTGluZT0iMTA0IiBkPSJNMTM0NC41NzksNDYuOTI2NyBDMTQ4Mi40MTksNDguMzU2NyAxNzgxLjgyLDYxLjMgMjAzMS41LDE0NiBDMjA1Mi40NywxNTMuMTEgMjA3My45LDE2NC43MSAyMDkxLjgyLDE3NS44NSIgZmlsbD0ibm9uZSIgaWQ9IlVzZXItYmFja3RvLVJlY2lwaWVudCIgc3R5bGU9InN0cm9rZTojMTgxODE4O3N0cm9rZS13aWR0aDoxOyIvPjxwb2x5Z29uIGZpbGw9Im5vbmUiIHBvaW50cz0iMTMyNi41OCw0Ni43NCwxMzQ0LjUxNjgsNTIuOTI2NCwxMzQ0LjY0MTMsNDAuOTI3MSwxMzI2LjU4LDQ2Ljc0IiBzdHlsZT0ic3Ryb2tlOiMxODE4MTg7c3Ryb2tlLXdpZHRoOjE7Ii8+PC9nPjwhLS1saW5rIFJlY2lwZSB0byBGZWVkYmFjay0tPjxnIGNsYXNzPSJsaW5rIiBkYXRhLWVudGl0eS0xPSJSZWNpcGUiIGRhdGEtZW50aXR5LTI9IkZlZWRiYWNrIiBkYXRhLXNvdXJjZS1saW5lPSIxMDciIGRhdGEtdWlkPSJsbmszMCIgaWQ9ImxpbmtfUmVjaXBlX0ZlZWRiYWNrIj48cGF0aCBjb2RlTGluZT0iMTA3IiBkPSJNMjIxLjE0LDY2Ni4yMSBDMjExLjkyLDY4Ni41MiAyMDIuMTUsNzA4LjA1IDE5My42Miw3MjYuODUiIGZpbGw9Im5vbmUiIGlkPSJSZWNpcGUtRmVlZGJhY2siIHN0eWxlPSJzdHJva2U6IzE4MTgxODtzdHJva2Utd2lkdGg6MTsiLz48dGV4dCBmaWxsPSIjMDAwMDAwIiBmb250LWZhbWlseT0ic2Fucy1zZXJpZiIgZm9udC1zaXplPSIxMyIgbGVuZ3RoQWRqdXN0PSJzcGFjaW5nIiB0ZXh0TGVuZ3RoPSI2LjUiIHg9IjIxMS43MTg5IiB5PSI2ODYuMjE3MiI+MTwvdGV4dD48dGV4dCBmaWxsPSIjMDAwMDAwIiBmb250LWZhbWlseT0ic2Fucy1zZXJpZiIgZm9udC1zaXplPSIxMyIgbGVuZ3RoQWRqdXN0PSJzcGFjaW5nIiB0ZXh0TGVuZ3RoPSI2LjUiIHg9IjE5MC43NTg3IiB5PSI3MTcuMzAyOCI+KjwvdGV4dD48L2c+PCEtLWxpbmsgUmVjaXBlIHRvIFJlcG9ydC0tPjxnIGNsYXNzPSJsaW5rIiBkYXRhLWVudGl0eS0xPSJSZWNpcGUiIGRhdGEtZW50aXR5LTI9IlJlcG9ydCIgZGF0YS1zb3VyY2UtbGluZT0iMTA4IiBkYXRhLXVpZD0ibG5rMzEiIGlkPSJsaW5rX1JlY2lwZV9SZXBvcnQiPjxwYXRoIGNvZGVMaW5lPSIxMDgiIGQ9Ik0yOTAuMjYsNjY2LjIxIEMyOTkuNTgsNjg2LjUyIDMwOS40Nyw3MDguMDUgMzE4LjEsNzI2Ljg1IiBmaWxsPSJub25lIiBpZD0iUmVjaXBlLVJlcG9ydCIgc3R5bGU9InN0cm9rZTojMTgxODE4O3N0cm9rZS13aWR0aDoxOyIvPjx0ZXh0IGZpbGw9IiMwMDAwMDAiIGZvbnQtZmFtaWx5PSJzYW5zLXNlcmlmIiBmb250LXNpemU9IjEzIiBsZW5ndGhBZGp1c3Q9InNwYWNpbmciIHRleHRMZW5ndGg9IjYuNSIgeD0iMjg3LjIxMDkiIHk9IjY4Ni4yMTcyIj4xPC90ZXh0Pjx0ZXh0IGZpbGw9IiMwMDAwMDAiIGZvbnQtZmFtaWx5PSJzYW5zLXNlcmlmIiBmb250LXNpemU9IjEzIiBsZW5ndGhBZGp1c3Q9InNwYWNpbmciIHRleHRMZW5ndGg9IjYuNSIgeD0iMzA4LjExMjMiIHk9IjcxNy4zMDI4Ij4qPC90ZXh0PjwvZz48IS0tbGluayBSZWNpcGVDcmVhdG9yIHRvIFJlY2lwZS0tPjxnIGNsYXNzPSJsaW5rIiBkYXRhLWVudGl0eS0xPSJSZWNpcGVDcmVhdG9yIiBkYXRhLWVudGl0eS0yPSJSZWNpcGUiIGRhdGEtc291cmNlLWxpbmU9IjEwOSIgZGF0YS11aWQ9ImxuazMyIiBpZD0ibGlua19SZWNpcGVDcmVhdG9yX1JlY2lwZSI+PHBhdGggY29kZUxpbmU9IjEwOSIgZD0iTTEwMS40LDI2OS4zOSBDOTkuMDIsMzE3LjEgMTAxLjA3LDM4NC4xNyAxMjMuNSw0MzggQzEzNC44LDQ2NS4xMSAxNTMuMDIsNDkwLjcyIDE3Mi4zNiw1MTIuODciIGZpbGw9Im5vbmUiIGlkPSJSZWNpcGVDcmVhdG9yLVJlY2lwZSIgc3R5bGU9InN0cm9rZTojMTgxODE4O3N0cm9rZS13aWR0aDoxOyIvPjx0ZXh0IGZpbGw9IiMwMDAwMDAiIGZvbnQtZmFtaWx5PSJzYW5zLXNlcmlmIiBmb250LXNpemU9IjEzIiBsZW5ndGhBZGp1c3Q9InNwYWNpbmciIHRleHRMZW5ndGg9IjYuNSIgeD0iOTQuNDMyIiB5PSIyODkuMjEzNSI+MTwvdGV4dD48dGV4dCBmaWxsPSIjMDAwMDAwIiBmb250LWZhbWlseT0ic2Fucy1zZXJpZiIgZm9udC1zaXplPSIxMyIgbGVuZ3RoQWRqdXN0PSJzcGFjaW5nIiB0ZXh0TGVuZ3RoPSI2LjUiIHg9IjE1Ni45NjU4IiB5PSI1MDMuMTIyNyI+KjwvdGV4dD48L2c+PCEtLWxpbmsgUmVjaXBlQ3JlYXRvciB0byBSZWNpcGVDb2xsZWN0aW9uLS0+PGcgY2xhc3M9ImxpbmsiIGRhdGEtZW50aXR5LTE9IlJlY2lwZUNyZWF0b3IiIGRhdGEtZW50aXR5LTI9IlJlY2lwZUNvbGxlY3Rpb24iIGRhdGEtc291cmNlLWxpbmU9IjExMCIgZGF0YS11aWQ9ImxuazMzIiBpZD0ibGlua19SZWNpcGVDcmVhdG9yX1JlY2lwZUNvbGxlY3Rpb24iPjxwYXRoIGNvZGVMaW5lPSIxMTAiIGQ9Ik0xNTguODUsMjY5LjA0IEMxNzUuNjMsMjg4LjgzIDE5NC4xMywzMTAuNjQgMjEwLjQxLDMyOS44NCIgZmlsbD0ibm9uZSIgaWQ9IlJlY2lwZUNyZWF0b3ItUmVjaXBlQ29sbGVjdGlvbiIgc3R5bGU9InN0cm9rZTojMTgxODE4O3N0cm9rZS13aWR0aDoxOyIvPjx0ZXh0IGZpbGw9IiMwMDAwMDAiIGZvbnQtZmFtaWx5PSJzYW5zLXNlcmlmIiBmb250LXNpemU9IjEzIiBsZW5ndGhBZGp1c3Q9InNwYWNpbmciIHRleHRMZW5ndGg9IjYuNSIgeD0iMTU4LjQ2OTQiIHk9IjI4OS4yNTM1Ij4xPC90ZXh0Pjx0ZXh0IGZpbGw9IiMwMDAwMDAiIGZvbnQtZmFtaWx5PSJzYW5zLXNlcmlmIiBmb250LXNpemU9IjEzIiBsZW5ndGhBZGp1c3Q9InNwYWNpbmciIHRleHRMZW5ndGg9IjYuNSIgeD0iMTk3LjM4MzUiIHk9IjMyMC4yOTEzIj4qPC90ZXh0PjwvZz48IS0tbGluayBSZWNpcGVDb2xsZWN0aW9uIHRvIFJlY2lwZS0tPjxnIGNsYXNzPSJsaW5rIiBkYXRhLWVudGl0eS0xPSJSZWNpcGVDb2xsZWN0aW9uIiBkYXRhLWVudGl0eS0yPSJSZWNpcGUiIGRhdGEtc291cmNlLWxpbmU9IjExMSIgZGF0YS11aWQ9ImxuazM0IiBpZD0ibGlua19SZWNpcGVDb2xsZWN0aW9uX1JlY2lwZSI+PHBhdGggY29kZUxpbmU9IjExMSIgZD0iTTI1NS41LDQzOC4yIEMyNTUuNSw0NjAuOTMgMjU1LjUsNDg3Ljg4IDI1NS41LDUxMi42NCIgZmlsbD0ibm9uZSIgaWQ9IlJlY2lwZUNvbGxlY3Rpb24tUmVjaXBlIiBzdHlsZT0ic3Ryb2tlOiMxODE4MTg7c3Ryb2tlLXdpZHRoOjE7Ii8+PHRleHQgZmlsbD0iIzAwMDAwMCIgZm9udC1mYW1pbHk9InNhbnMtc2VyaWYiIGZvbnQtc2l6ZT0iMTMiIGxlbmd0aEFkanVzdD0ic3BhY2luZyIgdGV4dExlbmd0aD0iNi41IiB4PSIyNDkuMTQ3NyIgeT0iNDU4LjMyODgiPio8L3RleHQ+PHRleHQgZmlsbD0iIzAwMDAwMCIgZm9udC1mYW1pbHk9InNhbnMtc2VyaWYiIGZvbnQtc2l6ZT0iMTMiIGxlbmd0aEFkanVzdD0ic3BhY2luZyIgdGV4dExlbmd0aD0iNi41IiB4PSIyNDkuMjE2NCIgeT0iNTAzLjM4NTMiPio8L3RleHQ+PC9nPjwhLS1saW5rIFNlYXJjaEVuZ2luZSB0byBSZWNpcGUtLT48ZyBjbGFzcz0ibGluayIgZGF0YS1lbnRpdHktMT0iU2VhcmNoRW5naW5lIiBkYXRhLWVudGl0eS0yPSJSZWNpcGUiIGRhdGEtc291cmNlLWxpbmU9IjExMiIgZGF0YS11aWQ9ImxuazM1IiBpZD0ibGlua19TZWFyY2hFbmdpbmVfUmVjaXBlIj48cGF0aCBjb2RlTGluZT0iMTEyIiBkPSJNNTAzLjQ3LDQxNS42OSBDNDY0LjU5LDQ0Mi43OCA0MTEuMzgyOSw0NzkuODcgMzYxLjE2MjksNTE0Ljg2IiBmaWxsPSJub25lIiBpZD0iU2VhcmNoRW5naW5lLXRvLVJlY2lwZSIgc3R5bGU9InN0cm9rZTojMTgxODE4O3N0cm9rZS13aWR0aDoxO3N0cm9rZS1kYXNoYXJyYXk6Ny4wLDcuMDsiLz48cG9seWdvbiBmaWxsPSIjMTgxODE4IiBwb2ludHM9IjM1Ni4yNCw1MTguMjksMzY1LjkxMSw1MTYuNDI3LDM2MC4zNDI0LDUxNS40MzE3LDM2MS4zMzc3LDUwOS44NjMxLDM1Ni4yNCw1MTguMjkiIHN0eWxlPSJzdHJva2U6IzE4MTgxODtzdHJva2Utd2lkdGg6MTsiLz48dGV4dCBmaWxsPSIjMDAwMDAwIiBmb250LWZhbWlseT0ic2Fucy1zZXJpZiIgZm9udC1zaXplPSIxMyIgbGVuZ3RoQWRqdXN0PSJzcGFjaW5nIiB0ZXh0TGVuZ3RoPSIzOSIgeD0iNDI5LjUiIHk9IjQ4MS4yODkxIj5zZWFyY2g8L3RleHQ+PHRleHQgZmlsbD0iIzAwMDAwMCIgZm9udC1mYW1pbHk9InNhbnMtc2VyaWYiIGZvbnQtc2l6ZT0iMTMiIGxlbmd0aEFkanVzdD0ic3BhY2luZyIgdGV4dExlbmd0aD0iNi41IiB4PSI0ODcuODIxNiIgeT0iNDM1Ljk1MTYiPjE8L3RleHQ+PHRleHQgZmlsbD0iIzAwMDAwMCIgZm9udC1mYW1pbHk9InNhbnMtc2VyaWYiIGZvbnQtc2l6ZT0iMTMiIGxlbmd0aEFkanVzdD0ic3BhY2luZyIgdGV4dExlbmd0aD0iNi41IiB4PSIzNjMuODc2OCIgeT0iNTExLjkwOTgiPio8L3RleHQ+PC9nPjwhLS1TUkM9W1hMTlJSamltMzd0dExtWHZRUmVZMVZQZzUwNjJqMXEyajJaTVJYLVdJQW1ocDk4Q0lOUE5SRmx0d01QUllYcHE4T3Y1eWYzS0VQSHlXVk9qclhoVENqbWVwQWtBLUVLcDRETzEtYkNYajQ2NmNIUGd6NjhLNHVzdHM3eTViODRta2FPRko5a1J1RG42aHBRZzl1UDllSkVPbWlRLXJrWE16aVNNaEVhQTRHTk9tRmdvSGVEYXI5bFdUb1VMU1FQeDVnQ204UTNyR1JuQVB1dVBfLU5EeGNOUldZeVFzblFPdnJySnE0SW5wZUthVGZrVHFmMVloVWdPQkVyNzBQUzNkOGtPa2hXN2U0VENWaU5nbkx1dFk0WkVCTUx2SnRSdERpVy1WSXRUN3BhcHdvQnZDcFhFT2tlNjFEWnFHOV80MTdOUFhTY3BOcXNINlJ5M1dfU2I2ZHpnS0I1MlJyeUItZTFacmZ2YnQtYWUwdHZLREw5c0VMQmNOSG1CdDJIWXdHTmpQLTBxMEloQkR5THRJV3dDbWlaejRkNEV5X0drT0VuamlTR0tfX0FYM1YwcVZrR21JQTMzVGpwaDNCZUpUMjhseTNrZEp6SkdXMUx2Mm93Vm52LVNpRHdVcy1MOVBwbEFjUjBtYlIxalRINzZfYTk0WVRtVEdpd1RyWFE5WE9hdXhEVFVFSWo0ZWpFNGpDRTVaclozZW5UamhrVE1lcy1YS3hfRkV6NG0wSDdJV05nTG9kT19PNDYwWGVZMldmRG5fblFPYnlqQUIwZG5sU1NqQ256eFVuSUtSN3kwdlg2Z21BZG9vUFl1LXNvQTl5MjZpcmdDRHV1am11dnpDbFVaOVNEU2U4RHUweU1Dc3RsYjktTmN4c1FKZHZwMnhjU21pSVFKY0xaWncxTG5zUG1hdFhENWl3ZVB2dWNkUDNMbjVpRExSZDJjd1RKZDY3VnlNQjBhcDgtWGhrQXRQX0xyWE1wU3dpamdrYmVOTjc0MnlhaWV5X2s5X2lHX05xVEx5SjVuS05jb1JCdlRoa2xoUlU5N1RKcGZfbTQwXS0tPjwvZz48L3N2Zz4=;" vertex="1" parent="1">
            <mxGeometry x="-780" y="-100" width="2416" height="841" as="geometry" />
          </mxCell>
        </UserObject>
      </root>
    </mxGraphModel>
  </diagram>
</mxfile>
